<svg width="1005" height="518" viewBox="0 0 1005 518" fill="none" xmlns="http://www.w3.org/2000/svg">
<path d="M545.171 2.1875C533.157 11.8008 522.981 22.7808 514.641 35.1275" stroke="#C4AB69" stroke-width="2"/>
<path d="M514.639 35.1328C492.509 67.8128 493.129 107.373 512.489 141.123C512.518 141.169 512.563 141.203 512.614 141.22C512.666 141.238 512.722 141.237 512.773 141.219C512.824 141.2 512.867 141.165 512.896 141.118C512.924 141.072 512.936 141.017 512.929 140.963C511.296 132.316 510.139 124.346 509.459 117.053C507.939 100.739 510.199 84.9728 516.239 69.7528" stroke="#C4AB69" stroke-width="2"/>
<path d="M516.238 69.7484C523.038 54.0684 533.225 40.5351 546.798 29.1484" stroke="#C4AB69" stroke-width="2"/>
<path d="M546.801 29.1484C554.381 35.3618 561.111 42.5251 566.991 50.6385C571.731 57.1785 575.524 64.2618 578.371 71.8885" stroke="#C4AB69" stroke-width="2"/>
<path d="M578.371 71.8866C583.931 86.8666 585.821 102.417 584.041 118.537C583.294 125.27 582.244 132.63 580.891 140.617C580.874 140.709 580.891 140.804 580.938 140.884C580.985 140.965 581.06 141.026 581.148 141.057C581.237 141.087 581.333 141.084 581.42 141.049C581.507 141.015 581.578 140.95 581.621 140.867C598.071 111.817 601.231 77.8766 586.231 47.3766C583.444 41.7032 580.574 36.8199 577.621 32.7266" stroke="#C4AB69" stroke-width="2"/>
<path d="M577.618 32.7292C569.171 20.7558 559.111 10.2392 547.438 1.17918C547.319 1.0833 547.174 1.02311 547.02 1.00544C546.866 0.987774 546.71 1.01331 546.568 1.07917C546.035 1.32584 545.568 1.69583 545.168 2.18916" stroke="#C4AB69" stroke-width="2"/>
<path d="M577.621 32.7266L578.371 71.8866" stroke="#C4AB69" stroke-width="2"/>
<path d="M546.798 29.1475L545.168 2.1875" stroke="#C4AB69" stroke-width="2"/>
<path d="M516.241 69.7528C515.214 64.6528 514.731 60.3128 514.791 56.7328C514.911 49.6395 514.861 42.4395 514.641 35.1328" stroke="#EFDA7F" stroke-width="2"/>
<path d="M404.559 142.852C408.472 149.965 413.162 156.458 418.629 162.332" stroke="#C4AB69" stroke-width="2"/>
<path d="M418.629 162.333C425.549 169.959 433.439 176.546 442.299 182.092C442.376 182.138 442.467 182.156 442.556 182.144C442.645 182.132 442.727 182.09 442.79 182.025C442.852 181.961 442.891 181.877 442.9 181.788C442.909 181.698 442.887 181.608 442.839 181.533C436.372 172.093 430.422 162.236 424.989 151.963C423.549 149.243 421.509 144.776 418.869 138.562" stroke="#C4AB69" stroke-width="2"/>
<path d="M418.87 138.559C411.883 122.279 408.557 105.413 408.89 87.9594C408.894 87.7924 408.961 87.6327 409.077 87.511C409.193 87.3893 409.351 87.314 409.52 87.2994L415.11 86.8594" stroke="#C4AB69" stroke-width="2"/>
<path d="M415.109 86.8604C425.383 86.8138 435.479 88.3304 445.399 91.4104" stroke="#C4AB69" stroke-width="2"/>
<path d="M445.401 91.4072C464.571 97.9172 480.891 108.267 497.141 120.347C497.155 120.363 497.176 120.373 497.197 120.374C497.219 120.374 497.24 120.367 497.256 120.352C497.272 120.338 497.281 120.317 497.282 120.296C497.283 120.274 497.275 120.253 497.261 120.237C493.507 114.317 489.764 109.017 486.031 104.337C475.077 90.5972 461.531 80.1905 445.391 73.1172" stroke="#C4AB69" stroke-width="2"/>
<path d="M445.39 73.1209C435.883 69.0609 425.926 66.4243 415.52 65.2109" stroke="#C4AB69" stroke-width="2"/>
<path d="M415.52 65.2103L404.77 64.0703" stroke="#C4AB69" stroke-width="2"/>
<path d="M404.771 64.0725L390.691 63.8125C390.583 63.8123 390.479 63.8527 390.401 63.9253C390.322 63.9979 390.276 64.0972 390.271 64.2025C388.821 91.3625 391.511 117.963 404.561 142.853" stroke="#C4AB69" stroke-width="2"/>
<path d="M404.769 64.0703C404.609 76.1103 405.099 88.2303 404.859 100.1C404.612 112.174 404.695 124.244 405.109 136.31C405.189 138.49 405.005 140.67 404.559 142.85" stroke="#F7EA94" stroke-width="2"/>
<path d="M415.52 65.2109C414.24 72.3976 414.103 79.6143 415.11 86.8609" stroke="#C4AB69" stroke-width="2"/>
<path d="M418.869 138.562L418.629 162.333" stroke="#C4AB69" stroke-width="2"/>
<path d="M445.391 73.1172L445.401 91.4072" stroke="#C4AB69" stroke-width="2"/>
<path d="M691.309 64.1562L679.039 65.1162" stroke="#C4AB69" stroke-width="2"/>
<path d="M679.038 65.1172C670.138 65.8772 661.538 67.8839 653.238 71.1372" stroke="#C4AB69" stroke-width="2"/>
<path d="M653.24 71.1406C638.52 76.794 625.69 85.3206 614.75 96.7206" stroke="#C4AB69" stroke-width="2"/>
<path d="M614.751 96.7188C607.611 103.905 601.451 111.805 596.271 120.419C596.236 120.462 596.219 120.517 596.223 120.572C596.227 120.627 596.252 120.679 596.292 120.717C596.333 120.754 596.386 120.776 596.441 120.776C596.496 120.777 596.55 120.756 596.591 120.719L615.121 107.569" stroke="#C4AB69" stroke-width="2"/>
<path d="M615.121 107.568C626.881 99.8148 639.438 93.9848 652.791 90.0781" stroke="#C4AB69" stroke-width="2"/>
<path d="M652.789 90.0766C660.229 88.1899 667.759 87.1566 675.379 86.9766" stroke="#C4AB69" stroke-width="2"/>
<path d="M675.379 86.9766L684.039 87.3566C684.39 87.3721 684.721 87.5239 684.962 87.7798C685.203 88.0356 685.334 88.3752 685.329 88.7266C685.096 103.493 682.566 117.663 677.739 131.237" stroke="#C4AB69" stroke-width="2"/>
<path d="M677.74 131.242C671.09 149.332 661.75 165.692 651.17 181.702C651.148 181.734 651.138 181.773 651.141 181.812C651.145 181.851 651.161 181.887 651.188 181.915C651.215 181.943 651.25 181.961 651.289 181.966C651.328 181.971 651.367 181.963 651.4 181.942C662.153 175.416 671.49 167.382 679.41 157.842" stroke="#C4AB69" stroke-width="2"/>
<path d="M679.41 157.838C684.25 151.838 688.273 145.335 691.48 138.328" stroke="#C4AB69" stroke-width="2"/>
<path d="M691.479 138.326C693.472 134.36 695.159 130.26 696.539 126.026C700.972 112.42 703.395 98.173 703.809 83.2864C703.982 76.9464 703.922 70.6397 703.629 64.3664C703.621 64.2399 703.565 64.1214 703.471 64.0356C703.378 63.9499 703.255 63.9036 703.129 63.9064L691.309 64.1564" stroke="#C4AB69" stroke-width="2"/>
<path d="M691.479 138.326L691.309 64.1562" stroke="#C4AB69" stroke-width="2"/>
<path d="M679.408 157.842L677.738 131.242" stroke="#C4AB69" stroke-width="2"/>
<path d="M675.379 86.9772L678.469 86.6972C678.608 86.6826 678.736 86.6186 678.83 86.5172C678.924 86.4159 678.977 86.2842 678.979 86.1472L679.039 65.1172" stroke="#C4AB69" stroke-width="2"/>
<path d="M652.789 90.0806L653.239 71.1406" stroke="#C4AB69" stroke-width="2"/>
<path d="M615.12 107.569L614.75 96.7188" stroke="#EFDA7F" stroke-width="2"/>
<path d="M542.939 130.219L536.239 140.729C536.196 140.796 536.167 140.872 536.153 140.95C536.14 141.029 536.142 141.109 536.16 141.187C536.177 141.264 536.21 141.337 536.256 141.401C536.303 141.465 536.361 141.518 536.429 141.559L543.079 145.479" stroke="#C4AB69" stroke-width="2"/>
<path d="M543.078 145.477C549.631 150.323 554.891 156.473 558.858 163.927" stroke="#C4AB69" stroke-width="2"/>
<path d="M558.859 163.93L562.909 172.54C563.012 172.758 563.198 172.93 563.429 173.02L566.209 174.08C566.412 174.158 566.589 174.292 566.718 174.466C566.848 174.64 566.926 174.848 566.943 175.064C566.959 175.281 566.914 175.498 566.813 175.69C566.711 175.882 566.558 176.041 566.369 176.15C566.336 176.163 565.979 176.173 565.299 176.18C565.184 176.181 565.072 176.22 564.981 176.29C564.889 176.36 564.822 176.457 564.79 176.568C564.757 176.678 564.761 176.797 564.801 176.905C564.84 177.013 564.913 177.106 565.009 177.17L577.149 185.17" stroke="#C4AB69" stroke-width="2"/>
<path d="M577.149 185.172L578.969 186.922C579.121 187.067 579.24 187.242 579.32 187.435C579.401 187.628 579.44 187.836 579.437 188.046C579.433 188.255 579.386 188.461 579.299 188.652C579.211 188.842 579.086 189.012 578.929 189.152C577.543 190.399 576.233 191.439 574.999 192.272C571.829 194.392 575.239 197.892 577.409 198.712C582.709 200.712 579.059 204.542 575.889 205.732C575.848 205.749 575.813 205.779 575.79 205.818C575.767 205.857 575.757 205.902 575.761 205.947C575.766 205.992 575.784 206.034 575.815 206.067C575.845 206.1 575.885 206.123 575.929 206.132C577.643 206.465 578.659 207.549 578.979 209.382C579.004 209.533 578.993 209.688 578.946 209.832C578.899 209.977 578.818 210.107 578.709 210.212L576.479 212.402C576.322 212.56 576.202 212.751 576.129 212.962C574.079 219.072 583.669 222.252 577.549 227.812" stroke="#C4AB69" stroke-width="2"/>
<path d="M577.55 227.812C574.337 229.739 570.707 230.849 566.66 231.142" stroke="#C4AB69" stroke-width="2"/>
<path d="M566.661 231.137C559.708 230.731 553.128 231.694 546.921 234.027C546.622 234.14 546.337 234.288 546.071 234.467C544.938 235.234 543.888 236.114 542.921 237.107C540.861 239.227 537.621 242.744 533.201 247.657C533.156 247.707 533.124 247.769 533.11 247.835C533.096 247.901 533.1 247.97 533.121 248.034C533.142 248.098 533.181 248.156 533.232 248.2C533.283 248.245 533.345 248.275 533.411 248.287L545.061 250.427" stroke="#C4AB69" stroke-width="2"/>
<path d="M545.059 250.43L545.799 250.69C545.83 250.701 545.858 250.72 545.879 250.746C545.9 250.773 545.914 250.804 545.918 250.837C545.922 250.871 545.917 250.904 545.903 250.935C545.889 250.965 545.867 250.991 545.839 251.01L545.549 251.22" stroke="#C4AB69" stroke-width="2"/>
<path d="M545.552 251.219C545.385 251.285 545.205 251.312 545.012 251.299" stroke="#C4AB69" stroke-width="2"/>
<path d="M545.009 251.297C537.515 251.344 532.285 251.82 529.319 252.727C515.539 256.957 502.149 263.857 489.309 270.347" stroke="#C4AB69" stroke-width="2"/>
<path d="M489.31 270.352C480.116 275.038 470.81 279.445 461.39 283.572C450.143 288.498 438.543 292.032 426.59 294.172" stroke="#C4AB69" stroke-width="2"/>
<path d="M426.589 294.172C416.916 295.779 407.676 296.125 398.869 295.212C397.002 295.019 393.059 294.446 387.039 293.492" stroke="#C4AB69" stroke-width="2"/>
<path d="M387.039 293.491C362.119 287.881 340.179 276.471 319.009 262.261C318.964 262.224 318.906 262.206 318.847 262.212C318.789 262.218 318.736 262.246 318.699 262.291C318.662 262.336 318.644 262.394 318.649 262.452C318.655 262.511 318.684 262.564 318.729 262.601C337.929 282.301 360.009 299.321 386.519 307.631" stroke="#C4AB69" stroke-width="2"/>
<path d="M386.52 307.633C399.993 311.719 413.7 312.733 427.64 310.673" stroke="#C4AB69" stroke-width="2"/>
<path d="M427.641 310.667C440.047 308.507 452.034 304.887 463.601 299.807C472.874 295.734 482.031 291.421 491.071 286.867" stroke="#C4AB69" stroke-width="2"/>
<path d="M491.07 286.871C508.89 277.931 527.45 269.771 547.18 266.391" stroke="#C4AB69" stroke-width="2"/>
<path d="M547.18 266.387C562.533 263.88 577.496 265.187 592.07 270.307C601.95 273.773 611.386 277.837 620.38 282.497C620.437 282.523 620.501 282.529 620.561 282.513C620.622 282.497 620.675 282.46 620.712 282.409C620.749 282.359 620.766 282.296 620.762 282.234C620.758 282.171 620.733 282.112 620.69 282.067C615.203 276.853 608.546 271.053 600.72 264.667C589.31 255.357 573.11 251.557 558.4 250.977" stroke="#C4AB69" stroke-width="2"/>
<path d="M558.4 250.982C557.634 250.882 557.014 250.656 556.54 250.302C556.32 250.136 556.44 249.866 556.9 249.492" stroke="#C4AB69" stroke-width="2"/>
<path d="M556.898 249.487C560.692 249.027 564.222 248.011 567.488 246.438" stroke="#C4AB69" stroke-width="2"/>
<path d="M567.488 246.44C572.095 244.44 576.142 241.817 579.628 238.57" stroke="#C4AB69" stroke-width="2"/>
<path d="M579.628 238.571C587.538 231.301 592.648 220.611 592.708 209.841C592.735 205.234 591.425 199.451 588.778 192.491C585.758 184.538 582.055 176.861 577.668 169.461" stroke="#C4AB69" stroke-width="2"/>
<path d="M577.672 169.462L559.602 139.602" stroke="#C4AB69" stroke-width="2"/>
<path d="M559.601 139.598L548.741 122.268C548.696 122.198 548.634 122.14 548.561 122.1C548.487 122.06 548.405 122.039 548.321 122.039C548.238 122.039 548.156 122.06 548.082 122.1C548.009 122.14 547.947 122.198 547.901 122.268L542.941 130.218" stroke="#C4AB69" stroke-width="2"/>
<path d="M559.599 139.602C558.579 147.588 558.332 155.698 558.859 163.932" stroke="#C4AB69" stroke-width="2"/>
<path d="M543.081 145.479L542.941 130.219" stroke="#E8CC6C" stroke-width="2"/>
<path d="M577.668 169.461L577.148 185.171" stroke="#C4AB69" stroke-width="2"/>
<path d="M579.631 238.573L577.551 227.812" stroke="#C4AB69" stroke-width="2"/>
<path d="M567.488 246.441C566.528 241.381 566.251 236.281 566.658 231.141" stroke="#C4AB69" stroke-width="2"/>
<path d="M556.899 249.492L545.059 250.432" stroke="#C4AB69" stroke-width="2"/>
<path d="M558.401 250.977L545.551 251.217" stroke="#C4AB69" stroke-width="2"/>
<path d="M547.182 266.387C547.435 261.154 546.712 256.124 545.012 251.297" stroke="#C4AB69" stroke-width="2"/>
<path d="M491.069 286.872L489.309 270.352" stroke="#C4AB69" stroke-width="2"/>
<path d="M427.64 310.672L426.59 294.172" stroke="#C4AB69" stroke-width="2"/>
<path d="M387.04 293.492L386.52 307.632" stroke="#C4AB69" stroke-width="2"/>
<path d="M475.031 202.32L478.561 209.72" stroke="#C4AB69" stroke-width="2"/>
<path d="M478.559 209.719C480.665 213.899 483.355 217.762 486.629 221.309" stroke="#C4AB69" stroke-width="2"/>
<path d="M486.629 221.308C493.169 228.822 500.799 234.872 509.519 239.458C509.577 239.49 509.644 239.502 509.709 239.492C509.775 239.482 509.835 239.45 509.881 239.402C509.926 239.354 509.955 239.293 509.962 239.227C509.969 239.161 509.954 239.095 509.919 239.038C503.319 227.958 498.029 214.528 496.759 201.958C495.249 186.938 498.459 171.838 505.289 158.058C505.391 157.85 505.414 157.611 505.353 157.386C505.292 157.162 505.152 156.967 504.959 156.838C499.486 153.178 493.576 150.032 487.229 147.398" stroke="#C4AB69" stroke-width="2"/>
<path d="M487.229 147.398L478.609 144.078" stroke="#C4AB69" stroke-width="2"/>
<path d="M478.611 144.076L475.211 143.016" stroke="#C4AB69" stroke-width="2"/>
<path d="M475.209 143.018C474.569 142.638 474.006 142.488 473.519 142.568C473.357 142.591 473.205 142.663 473.084 142.773C472.963 142.884 472.878 143.028 472.839 143.188C468.349 162.338 467.929 183.728 475.029 202.318" stroke="#C4AB69" stroke-width="2"/>
<path d="M475.211 143.016C475.591 146.342 475.778 148.652 475.771 149.946C475.605 172.106 475.558 187.482 475.631 196.076C475.651 198.556 475.451 200.636 475.031 202.316" stroke="#EFDA7F" stroke-width="2"/>
<path d="M478.609 144.078C479.149 161.678 479.352 179.238 479.219 196.758C479.192 200.991 478.972 205.311 478.559 209.718" stroke="#C4AB69" stroke-width="2"/>
<path d="M487.229 147.398C487.202 169.492 487.196 191.532 487.209 213.518C487.209 215.432 487.016 218.028 486.629 221.308" stroke="#C4AB69" stroke-width="2"/>
<path d="M620.898 144.148L608.238 149.168" stroke="#C4AB69" stroke-width="2"/>
<path d="M608.239 149.172L594.279 156.912C594.119 157.001 593.999 157.148 593.945 157.324C593.891 157.499 593.907 157.688 593.989 157.852C606.103 181.639 606.313 205.472 594.619 229.352C593.119 232.412 591.253 235.819 589.019 239.572C588.975 239.648 588.957 239.737 588.968 239.824C588.978 239.912 589.017 239.994 589.077 240.057C589.138 240.119 589.217 240.16 589.302 240.172C589.388 240.183 589.475 240.166 589.549 240.122C596.396 236.295 602.689 231.642 608.429 226.162" stroke="#C4AB69" stroke-width="2"/>
<path d="M608.43 226.158L617.6 215.578" stroke="#C4AB69" stroke-width="2"/>
<path d="M617.602 215.58C621.062 211.55 622.882 206.38 625.092 201.02C626.352 197.953 627.258 194.926 627.812 191.94C628.898 186.126 629.515 181.406 629.662 177.78C629.868 172.626 629.752 166.256 629.312 158.67C629.182 156.4 628.682 154.26 628.052 151.5C627.992 151.254 627.962 151.002 627.962 150.75C627.928 148.29 627.445 145.796 626.512 143.27C626.445 143.086 626.317 142.932 626.149 142.831C625.982 142.731 625.785 142.692 625.592 142.72C623.925 142.953 622.362 143.43 620.902 144.15" stroke="#C4AB69" stroke-width="2"/>
<path d="M617.602 215.578L620.952 208.328C621.057 208.084 621.115 207.823 621.122 207.558C621.282 186.408 621.612 166.808 620.902 144.148" stroke="#C4AB69" stroke-width="2"/>
<path d="M608.429 226.162C608.162 223.522 608.042 221.679 608.069 220.632C608.555 200.519 608.509 180.405 607.929 160.292C607.882 158.479 607.986 154.772 608.239 149.172" stroke="#C4AB69" stroke-width="2"/>
<path d="M532.291 147.031L522.301 163.551" stroke="#C4AB69" stroke-width="2"/>
<path d="M522.298 163.547L510.078 186.147" stroke="#C4AB69" stroke-width="2"/>
<path d="M510.081 186.148C508.435 189.882 506.988 193.638 505.741 197.418C501.775 209.458 503.405 220.798 510.631 231.438" stroke="#C4AB69" stroke-width="2"/>
<path d="M510.629 231.438L515.479 237.318C515.74 237.634 516.104 237.85 516.508 237.927C516.912 238.003 517.329 237.936 517.689 237.737L522.629 234.977" stroke="#C4AB69" stroke-width="2"/>
<path d="M522.629 234.976C526.696 232.37 530.376 229.346 533.669 225.906" stroke="#C4AB69" stroke-width="2"/>
<path d="M533.668 225.909L536.568 222.609" stroke="#C4AB69" stroke-width="2"/>
<path d="M536.57 222.61C539.404 219.983 541.874 216.707 543.98 212.78C549.82 201.9 553.92 189.64 551.97 177.54C550.52 168.57 547.26 159.41 541.37 152.5" stroke="#C4AB69" stroke-width="2"/>
<path d="M541.369 152.5L534.479 145.27C534.378 145.164 534.242 145.099 534.096 145.088C533.95 145.077 533.805 145.12 533.689 145.21C533.156 145.637 532.689 146.243 532.289 147.03" stroke="#C4AB69" stroke-width="2"/>
<path d="M541.37 152.5C541.32 157.62 541.57 163.03 541.34 167.8C540.607 183.28 540.627 198.76 541.4 214.24C541.413 214.572 541.326 214.9 541.15 215.18L536.57 222.61" stroke="#C4AB69" stroke-width="2"/>
<path d="M533.669 225.911C532.796 223.158 532.336 220.641 532.289 218.361C531.979 202.141 532.519 184.661 532.349 167.901C532.276 160.961 532.256 154.005 532.289 147.031" stroke="#C4AB69" stroke-width="2"/>
<path d="M522.631 234.977C523.751 216.707 523.261 198.177 523.091 179.877C523.037 174.417 522.774 168.974 522.301 163.547" stroke="#C4AB69" stroke-width="2"/>
<path d="M510.628 231.438C510.981 228.318 511.168 225.972 511.188 224.398C511.255 218.352 511.255 207.675 511.188 192.368C511.188 191.008 510.818 188.935 510.078 186.148" stroke="#E8CC6C" stroke-width="2"/>
<path d="M358.791 179.227C352.231 181.313 345.924 183.887 339.871 186.947" stroke="#C4AB69" stroke-width="2"/>
<path d="M339.87 186.945C332.083 190.792 324.637 195.145 317.53 200.005C317.416 200.084 317.335 200.202 317.306 200.336C317.276 200.47 317.299 200.609 317.37 200.725C324.603 212.939 332.493 224.622 341.04 235.775" stroke="#C4AB69" stroke-width="2"/>
<path d="M341.039 235.781L352.809 249.291" stroke="#C4AB69" stroke-width="2"/>
<path d="M352.809 249.289C363.609 261.109 376.209 270.322 390.609 276.929" stroke="#C4AB69" stroke-width="2"/>
<path d="M390.609 276.93C405.776 283.603 421.446 284.53 437.619 279.71" stroke="#C4AB69" stroke-width="2"/>
<path d="M437.619 279.712C450.466 275.905 461.956 269.685 472.089 261.052C472.154 260.997 472.198 260.922 472.215 260.839C472.232 260.755 472.22 260.669 472.182 260.593C472.144 260.517 472.082 260.456 472.005 260.419C471.929 260.383 471.842 260.373 471.759 260.392C459.899 263.312 447.856 265.025 435.629 265.532" stroke="#C4AB69" stroke-width="2"/>
<path d="M435.63 265.526C432.696 265.479 429.767 265.396 426.84 265.276C414.473 264.756 402.973 261.502 392.34 255.516" stroke="#C4AB69" stroke-width="2"/>
<path d="M392.339 255.522C382.513 249.916 374.046 242.723 366.939 233.943C361.506 227.243 356.479 220.116 351.859 212.562" stroke="#C4AB69" stroke-width="2"/>
<path d="M351.861 212.556L349.381 208.616C349.209 208.343 349.146 208.015 349.205 207.698C349.265 207.381 349.442 207.098 349.701 206.906L359.571 199.586" stroke="#C4AB69" stroke-width="2"/>
<path d="M359.57 199.592C367.837 194.672 376.68 191.276 386.1 189.402C387.62 189.102 389.147 188.739 390.68 188.312" stroke="#C4AB69" stroke-width="2"/>
<path d="M390.68 188.312C402.846 186.546 415.073 186.522 427.36 188.242C438.006 189.729 448.506 192.099 458.86 195.352C458.929 195.373 459.005 195.369 459.072 195.339C459.14 195.309 459.194 195.256 459.225 195.191C459.256 195.125 459.261 195.052 459.24 194.984C459.219 194.916 459.172 194.858 459.11 194.822C452.383 190.529 445.806 186.842 439.38 183.762C424.393 176.582 408.623 173.119 392.07 173.372" stroke="#C4AB69" stroke-width="2"/>
<path d="M392.069 173.367C380.616 173.541 369.522 175.494 358.789 179.227" stroke="#C4AB69" stroke-width="2"/>
<path d="M392.07 173.367C390.683 178.207 390.22 183.187 390.68 188.307" stroke="#C4AB69" stroke-width="2"/>
<path d="M359.569 199.587L358.789 179.227" stroke="#C4AB69" stroke-width="2"/>
<path d="M351.859 212.562L352.809 249.292" stroke="#C4AB69" stroke-width="2"/>
<path d="M341.041 235.775C342.008 219.569 341.618 203.292 339.871 186.945" stroke="#EFDA7F" stroke-width="2"/>
<path d="M392.339 255.516L390.609 276.926" stroke="#C4AB69" stroke-width="2"/>
<path d="M435.629 265.531C437.149 270.105 437.812 274.831 437.619 279.711" stroke="#C4AB69" stroke-width="2"/>
<path d="M686.611 174.195C668.011 176.305 648.821 185.215 633.471 195.435C633.393 195.476 633.333 195.547 633.306 195.631C633.278 195.715 633.285 195.807 633.324 195.887C633.363 195.966 633.432 196.027 633.515 196.057C633.599 196.087 633.691 196.082 633.771 196.045C651.471 189.812 669.421 186.772 687.621 186.925" stroke="#C4AB69" stroke-width="2"/>
<path d="M687.621 186.93C695.274 187.11 702.841 188.083 710.321 189.85" stroke="#C4AB69" stroke-width="2"/>
<path d="M710.32 189.852C717.974 191.685 725.284 194.548 732.25 198.442" stroke="#C4AB69" stroke-width="2"/>
<path d="M732.25 198.438L744 206.337C744.309 206.545 744.524 206.865 744.601 207.229C744.677 207.593 744.609 207.973 744.41 208.288L735.65 222.228" stroke="#C4AB69" stroke-width="2"/>
<path d="M735.651 222.227C726.811 235.067 717.071 246.087 703.641 254.237" stroke="#C4AB69" stroke-width="2"/>
<path d="M703.639 254.242C695.326 259.396 686.292 262.772 676.539 264.372" stroke="#C4AB69" stroke-width="2"/>
<path d="M676.541 264.367C669.475 265.447 662.221 265.824 654.781 265.497" stroke="#C4AB69" stroke-width="2"/>
<path d="M654.779 265.5C644.019 264.647 633.026 262.913 621.799 260.3C621.718 260.28 621.633 260.288 621.557 260.322C621.481 260.356 621.419 260.415 621.381 260.489C621.343 260.564 621.331 260.648 621.347 260.73C621.363 260.812 621.406 260.886 621.469 260.94C631.382 269.507 642.772 275.67 655.639 279.43" stroke="#C4AB69" stroke-width="2"/>
<path d="M655.641 279.43C663.507 281.696 671.584 282.753 679.871 282.6" stroke="#C4AB69" stroke-width="2"/>
<path d="M679.871 282.601C688.384 282.134 696.478 280.088 704.151 276.461" stroke="#C4AB69" stroke-width="2"/>
<path d="M704.148 276.456C716.735 270.603 727.892 262.729 737.618 252.836" stroke="#C4AB69" stroke-width="2"/>
<path d="M737.621 252.838L752.161 236.578" stroke="#C4AB69" stroke-width="2"/>
<path d="M752.161 236.577C761.048 225.15 769.148 213.227 776.461 200.807C776.542 200.673 776.568 200.513 776.534 200.361C776.501 200.208 776.41 200.074 776.281 199.987C768.068 194.373 759.461 189.453 750.461 185.227" stroke="#C4AB69" stroke-width="2"/>
<path d="M750.461 185.226L733.191 178.406" stroke="#C4AB69" stroke-width="2"/>
<path d="M733.191 178.408C726.031 176.201 718.651 174.711 711.051 173.938" stroke="#C4AB69" stroke-width="2"/>
<path d="M711.049 173.942C702.903 173.055 694.756 173.142 686.609 174.202" stroke="#C4AB69" stroke-width="2"/>
<path d="M711.05 173.938L710.32 189.848" stroke="#EFDA7F" stroke-width="2"/>
<path d="M687.619 186.925L686.609 174.195" stroke="#C4AB69" stroke-width="2"/>
<path d="M733.19 178.406C733.61 185.1 733.297 191.776 732.25 198.436" stroke="#EFDA7F" stroke-width="2"/>
<path d="M750.461 185.227L752.161 236.577" stroke="#C4AB69" stroke-width="2"/>
<path d="M737.618 252.837L735.648 222.227" stroke="#C4AB69" stroke-width="2"/>
<path d="M704.151 276.462L703.641 254.242" stroke="#C4AB69" stroke-width="2"/>
<path d="M679.869 282.597L676.539 264.367" stroke="#C4AB69" stroke-width="2"/>
<path d="M654.781 265.5C655.995 270.247 656.281 274.89 655.641 279.43" stroke="#C4AB69" stroke-width="2"/>
<path d="M622.561 223.719C612.914 233.585 601.821 241.269 589.281 246.769C589.212 246.798 589.155 246.849 589.118 246.914C589.082 246.979 589.067 247.054 589.077 247.128C589.088 247.202 589.122 247.271 589.175 247.323C589.228 247.376 589.297 247.409 589.371 247.419C601.358 249.052 612.781 247.589 623.641 243.029" stroke="#C4AB69" stroke-width="2"/>
<path d="M623.641 243.027C629.067 240.314 633.977 237.011 638.371 233.117" stroke="#C4AB69" stroke-width="2"/>
<path d="M638.371 233.119C647.638 224.452 654.664 214.282 659.451 202.609C659.509 202.463 659.507 202.3 659.447 202.156C659.388 202.012 659.274 201.898 659.131 201.839C653.618 199.566 647.871 197.966 641.891 197.039" stroke="#C4AB69" stroke-width="2"/>
<path d="M641.889 197.041C641.129 196.795 640.499 196.735 639.999 196.861C639.841 196.898 639.695 196.973 639.571 197.079C639.448 197.185 639.351 197.319 639.289 197.471C635.355 207.291 629.779 216.041 622.559 223.721" stroke="#C4AB69" stroke-width="2"/>
<path d="M641.891 197.039C640.321 206.489 640.741 213.319 640.981 224.759C641.034 227.239 640.164 230.026 638.371 233.119" stroke="#C4AB69" stroke-width="2"/>
<path d="M623.639 243.029L622.559 223.719" stroke="#C4AB69" stroke-width="2"/>
<path d="M451.191 198.398L440.341 201.718C440.263 201.743 440.19 201.783 440.128 201.837C440.066 201.891 440.016 201.957 439.981 202.032C439.947 202.106 439.928 202.187 439.926 202.269C439.924 202.351 439.939 202.433 439.971 202.508C442.898 209.508 446.678 216.028 451.311 222.068" stroke="#C4AB69" stroke-width="2"/>
<path d="M451.309 222.07C456.615 229.284 462.962 235.25 470.349 239.97" stroke="#C4AB69" stroke-width="2"/>
<path d="M470.352 239.966C475.745 243.306 481.582 245.563 487.862 246.736C494.822 248.043 501.698 248.176 508.492 247.136C508.546 247.128 508.597 247.103 508.637 247.064C508.677 247.026 508.703 246.975 508.712 246.92C508.721 246.866 508.712 246.81 508.687 246.76C508.662 246.711 508.621 246.671 508.572 246.646C507.838 246.286 507.152 245.809 506.512 245.216C506.339 245.057 506.147 244.922 505.942 244.816C492.635 238.163 481.278 229.169 471.872 217.836" stroke="#C4AB69" stroke-width="2"/>
<path d="M471.871 217.841C467.078 211.588 463.335 205.005 460.641 198.091C460.494 197.717 460.222 197.405 459.872 197.21C459.521 197.014 459.115 196.948 458.721 197.021L451.191 198.401" stroke="#C4AB69" stroke-width="2"/>
<path d="M471.872 217.836L470.352 239.966" stroke="#C4AB69" stroke-width="2"/>
<path d="M451.311 222.068C452.398 214.135 452.358 206.245 451.191 198.398" stroke="#E8CC6C" stroke-width="2"/>
<path d="M219.508 276.047L162.328 419.377" stroke="#C4AB69" stroke-width="2"/>
<path d="M162.33 419.383C142.53 429.996 120.89 436.786 97.4102 439.753" stroke="#C4AB69" stroke-width="2"/>
<path d="M97.4098 439.75C75.8965 441.757 54.5465 440.257 33.3598 435.25C23.2598 432.857 12.7598 429.84 1.85983 426.2C1.73983 426.16 1.6165 426.143 1.48983 426.15C1.3365 426.163 1.2065 426.167 1.09983 426.16C1.07883 426.158 1.05769 426.163 1.0401 426.174C1.02252 426.186 1.00962 426.204 1.00366 426.224C0.997696 426.244 0.999054 426.266 1.0075 426.285C1.01594 426.305 1.03092 426.32 1.04983 426.33C29.5898 442.42 61.9698 452.34 95.0198 451.77" stroke="#C4AB69" stroke-width="2"/>
<path d="M95.0195 451.768C118.31 451.668 142.02 445.778 163.27 436.578" stroke="#C4AB69" stroke-width="2"/>
<path d="M163.27 436.581C166.523 435.275 169.683 433.888 172.75 432.421C190.496 423.955 207.776 414.575 224.59 404.281" stroke="#C4AB69" stroke-width="2"/>
<path d="M224.59 404.275C242.95 393.745 258.06 385.095 276.09 376.945" stroke="#C4AB69" stroke-width="2"/>
<path d="M276.09 376.948C289.063 371.121 302.42 366.581 316.16 363.328" stroke="#C4AB69" stroke-width="2"/>
<path d="M316.16 363.331C338.747 358.411 361.54 357.594 384.54 360.881" stroke="#C4AB69" stroke-width="2"/>
<path d="M384.538 360.883C401.078 363.229 417.288 367.019 433.168 372.253C433.21 372.266 433.254 372.266 433.294 372.251C433.335 372.237 433.368 372.209 433.388 372.173L433.558 371.883C433.571 371.861 433.579 371.837 433.583 371.812C433.586 371.788 433.584 371.763 433.578 371.739C433.571 371.716 433.56 371.694 433.544 371.676C433.529 371.657 433.51 371.643 433.488 371.633C417.408 363.319 400.605 356.986 383.078 352.633" stroke="#C4AB69" stroke-width="2"/>
<path d="M383.079 352.628C360.112 347.141 337.046 346.225 313.879 349.878" stroke="#C4AB69" stroke-width="2"/>
<path d="M313.879 349.883C300.519 352.103 287.346 355.746 274.359 360.813" stroke="#C4AB69" stroke-width="2"/>
<path d="M274.362 360.813C262.368 330.686 250.265 300.676 238.052 270.782C236.422 266.792 233.812 259.433 229.102 260.133C224.822 260.773 220.602 273.232 219.512 276.052" stroke="#C4AB69" stroke-width="2"/>
<path d="M274.359 360.812L276.089 376.952" stroke="#F7EA94" stroke-width="2"/>
<path d="M224.589 404.281C223.003 398.668 221.926 392.894 221.359 386.961" stroke="#C4AB69" stroke-width="2"/>
<path d="M221.359 386.962L239.939 376.532C240.059 376.465 240.151 376.357 240.199 376.227C240.246 376.097 240.247 375.954 240.199 375.822L222.409 326.742" stroke="#C4AB69" stroke-width="2"/>
<path d="M222.412 326.737C220.778 309.897 219.812 293 219.512 276.047" stroke="#C4AB69" stroke-width="2"/>
<path d="M222.411 326.743C221.691 326.39 221.108 326.633 220.661 327.473C220.228 328.293 219.855 329.126 219.541 329.973C212.048 349.86 202.871 374.22 192.011 403.053C191.871 403.433 192.001 403.663 192.401 403.743C192.575 403.783 192.798 403.72 193.071 403.553C202.418 397.96 211.848 392.43 221.361 386.963" stroke="#C4AB69" stroke-width="2"/>
<path d="M163.268 436.583L162.328 419.383" stroke="#C4AB69" stroke-width="2"/>
<path d="M383.078 352.633L384.538 360.883" stroke="#C4AB69" stroke-width="2"/>
<path d="M316.159 363.333L313.879 349.883" stroke="#EFDA7F" stroke-width="2"/>
<path d="M95.0195 451.77L97.4095 439.75" stroke="#C4AB69" stroke-width="2"/>
<path d="M724.821 287.516C704.195 294.456 683.618 297.476 663.091 296.576C657.745 296.342 650.975 295.469 642.781 293.956" stroke="#C4AB69" stroke-width="2"/>
<path d="M642.78 293.961C634.407 292.395 628.043 290.898 623.69 289.471C612.316 285.745 600.903 282.168 589.45 278.741C577.603 275.188 566.4 273.371 555.84 273.291C547.867 273.225 539.617 274.671 531.09 277.631" stroke="#C4AB69" stroke-width="2"/>
<path d="M531.089 277.633C514.319 283.643 499.329 294.353 486.369 306.513C486.345 306.538 486.331 306.571 486.328 306.605C486.326 306.64 486.336 306.674 486.356 306.702C486.376 306.731 486.405 306.751 486.438 306.76C486.472 306.77 486.507 306.767 486.539 306.753C495.032 302.479 503.396 298.666 511.629 295.313C516.556 293.299 522.502 291.619 529.469 290.273" stroke="#C4AB69" stroke-width="2"/>
<path d="M529.469 290.272C545.202 288.199 560.689 288.955 575.929 292.542C587.755 295.329 600.709 299.012 614.789 303.592C623.362 306.379 633.135 309.022 644.109 311.522" stroke="#C4AB69" stroke-width="2"/>
<path d="M644.109 311.52C672.509 317.68 700.549 315.41 726.639 302" stroke="#C4AB69" stroke-width="2"/>
<path d="M726.64 301.999C743.414 293.352 758.454 282.272 771.76 268.759C771.786 268.731 771.805 268.699 771.817 268.664C771.829 268.629 771.833 268.592 771.829 268.555C771.825 268.518 771.814 268.482 771.795 268.45C771.776 268.418 771.751 268.39 771.72 268.369C771.634 268.309 771.51 268.315 771.35 268.389C756.25 275.895 740.74 282.272 724.82 287.519" stroke="#C4AB69" stroke-width="2"/>
<path d="M726.64 301.996L724.82 287.516" stroke="#C4AB69" stroke-width="2"/>
<path d="M642.781 293.961L644.111 311.521" stroke="#C4AB69" stroke-width="2"/>
<path d="M529.469 290.273L531.089 277.633" stroke="#EFDA7F" stroke-width="2"/>
<path d="M764.57 446.891C778.31 462.044 791.967 477.194 805.54 492.341C807.54 494.567 808.844 496.647 809.45 498.581C812.22 507.451 804.65 509.871 797.67 510.401C797.447 510.416 797.239 510.516 797.086 510.682C796.934 510.847 796.85 511.065 796.85 511.291V512.641C796.85 512.89 796.949 513.129 797.126 513.305C797.302 513.482 797.541 513.581 797.79 513.581L827.06 513.571" stroke="#C4AB69" stroke-width="2"/>
<path d="M827.059 513.571L868.829 513.511C869.187 513.511 869.53 513.368 869.783 513.113C870.036 512.858 870.179 512.512 870.179 512.151V511.551C870.179 511.266 870.072 510.991 869.879 510.783C869.686 510.575 869.421 510.449 869.139 510.431C862.719 509.984 857.172 508.298 852.499 505.371C842.599 499.181 835.149 490.621 827.069 482.711" stroke="#C4AB69" stroke-width="2"/>
<path d="M827.07 482.708L780.32 430.248C780.251 430.169 780.214 430.068 780.216 429.964C780.218 429.86 780.258 429.762 780.33 429.688C788.963 420.475 797.58 411.125 806.18 401.638C808.733 398.825 812.25 395.592 816.73 391.938C823.63 386.298 830.6 385.178 839.25 384.558C839.456 384.543 839.65 384.45 839.791 384.298C839.932 384.146 840.01 383.946 840.01 383.738V382.318C840.01 382.074 839.913 381.84 839.74 381.668C839.568 381.495 839.334 381.398 839.09 381.398H781.03C780.743 381.398 780.468 381.512 780.266 381.715C780.063 381.917 779.95 382.192 779.95 382.478V383.658C779.949 383.954 780.062 384.239 780.264 384.455C780.467 384.671 780.744 384.801 781.04 384.818C789.77 385.348 800.14 387.168 797.69 398.928C797.143 401.542 796.25 403.718 795.01 405.458C791.23 410.772 787.256 415.715 783.09 420.288C777.223 426.715 771.366 433.118 765.52 439.498" stroke="#C4AB69" stroke-width="2"/>
<path d="M765.521 439.495L755.971 450.025C755.906 450.099 755.821 450.15 755.726 450.174C755.631 450.197 755.531 450.191 755.44 450.156C755.349 450.122 755.27 450.06 755.215 449.979C755.16 449.898 755.13 449.803 755.131 449.705V333.785C755.132 333.704 755.115 333.624 755.082 333.55C755.049 333.476 755.001 333.409 754.94 333.355C754.879 333.301 754.808 333.261 754.731 333.237C754.653 333.213 754.571 333.205 754.491 333.215C737.724 335.382 723.444 337.172 711.651 338.585C710.638 338.705 710.131 339.469 710.131 340.875C710.132 341.186 710.248 341.486 710.456 341.717C710.665 341.948 710.951 342.093 711.261 342.125C714.461 342.465 717.991 342.925 720.791 344.315C726.461 347.135 729.871 353.645 730.671 359.735C731.311 364.589 731.634 369.689 731.641 375.035C731.768 429.902 731.751 463.652 731.591 476.285C731.504 483.212 731.098 488.792 730.371 493.025C728.311 505.095 720.751 509.435 709.481 510.375C709.203 510.398 708.943 510.524 708.754 510.728C708.565 510.931 708.46 511.198 708.461 511.475V512.515C708.461 512.802 708.575 513.076 708.777 513.279C708.98 513.481 709.255 513.595 709.541 513.595H776.071C776.463 513.593 776.839 513.449 777.131 513.188C777.422 512.928 777.609 512.57 777.655 512.181C777.702 511.791 777.605 511.398 777.384 511.073C777.162 510.748 776.831 510.514 776.451 510.415C764.921 507.565 756.401 504.315 755.601 490.795C755.128 482.742 754.981 471.882 755.161 458.215C755.167 457.488 755.442 456.789 755.931 456.255L764.571 446.885" stroke="#C4AB69" stroke-width="2"/>
<path d="M765.52 439.5L764.57 446.89" stroke="#F7EA94" stroke-width="2"/>
<path d="M827.069 482.711L827.059 513.571" stroke="#F7EA94" stroke-width="2"/>
<path d="M676.963 350.384C676.91 348.597 676.495 346.837 675.742 345.206C674.989 343.575 673.913 342.105 672.575 340.88C671.237 339.654 669.664 338.697 667.945 338.063C666.225 337.43 664.394 337.131 662.555 337.186C658.841 337.296 655.321 338.836 652.771 341.467C650.221 344.098 648.848 347.605 648.955 351.216C649.008 353.003 649.423 354.763 650.176 356.394C650.928 358.025 652.004 359.495 653.342 360.72C654.68 361.946 656.254 362.903 657.973 363.537C659.692 364.171 661.524 364.469 663.363 364.414C667.077 364.304 670.596 362.764 673.147 360.133C675.697 357.502 677.07 353.995 676.963 350.384Z" stroke="#C4AB69" stroke-width="2"/>
<path d="M474.229 389.977C488.089 397.987 488.249 413.597 488.629 428.047C488.709 430.813 488.759 444.897 488.779 470.297C488.786 476.243 488.446 483.137 487.759 490.977C487.306 496.203 485.422 500.727 482.109 504.547C479.649 507.38 474.432 509.313 466.459 510.347C466.205 510.38 465.971 510.504 465.802 510.696C465.633 510.887 465.54 511.132 465.539 511.387V512.707C465.539 512.94 465.632 513.164 465.797 513.329C465.962 513.494 466.186 513.587 466.419 513.587L502.719 513.567" stroke="#C4AB69" stroke-width="2"/>
<path d="M502.719 513.567C512.999 513.62 523.212 513.517 533.359 513.257C533.925 513.243 534.282 513.007 534.429 512.547C534.498 512.328 534.522 512.098 534.499 511.872C534.476 511.645 534.406 511.426 534.295 511.229C534.184 511.032 534.034 510.862 533.853 510.729C533.673 510.596 533.467 510.503 533.249 510.457C523.519 508.387 514.599 504.817 513.129 493.627C512.729 490.567 512.389 487.497 512.339 484.047C512.105 467.14 512.082 450.217 512.269 433.277C512.369 424.07 513.695 415.553 516.249 407.727C518.409 401.133 522.392 395.633 528.199 391.227" stroke="#C4AB69" stroke-width="2"/>
<path d="M528.202 391.226C537.222 385.866 548.612 384.506 558.552 387.466C573.092 391.786 577.622 406.696 577.972 420.256C578.345 434.71 578.432 453.313 578.232 476.066C578.178 482.033 577.708 488.016 576.822 494.016C575.382 503.81 568.635 509.243 556.582 510.316C556.175 510.353 555.796 510.539 555.517 510.838C555.238 511.137 555.08 511.528 555.072 511.936V511.996C555.066 512.186 555.099 512.375 555.168 512.552C555.237 512.729 555.341 512.89 555.473 513.027C555.606 513.163 555.764 513.271 555.939 513.345C556.114 513.419 556.302 513.457 556.492 513.456L623.182 513.586C623.42 513.586 623.649 513.492 623.818 513.323C623.987 513.154 624.082 512.925 624.082 512.686V511.346C624.082 511.118 624.001 510.896 623.852 510.722C623.704 510.548 623.498 510.432 623.272 510.396C620.098 509.89 616.685 508.876 613.032 507.356C605.622 504.276 602.652 498.266 602.192 490.766C601.952 486.926 601.812 482.433 601.772 477.286C601.658 463.246 601.622 445.576 601.662 424.276C601.675 416.523 601.525 411.706 601.212 409.826C599.612 400.266 595.022 392.756 587.102 387.186C583.008 384.306 579.142 382.366 575.502 381.366C557.442 376.42 540.445 379.28 524.512 389.946" stroke="#C4AB69" stroke-width="2"/>
<path d="M524.512 389.945C519.925 393.085 515.635 396.635 511.642 400.595C511.122 401.115 510.622 401.512 510.142 401.785C509.993 401.871 509.818 401.898 509.65 401.863C509.483 401.828 509.334 401.733 509.232 401.595L503.602 393.945" stroke="#C4AB69" stroke-width="2"/>
<path d="M503.6 393.95C496.413 384.683 486.803 379.76 474.77 379.18" stroke="#C4AB69" stroke-width="2"/>
<path d="M474.77 379.18C458.757 378.707 444.544 383.51 432.13 393.59C429.964 395.35 427.587 397.52 425 400.1C424.941 400.16 424.865 400.201 424.783 400.219C424.7 400.237 424.615 400.231 424.535 400.201C424.456 400.172 424.388 400.12 424.337 400.053C424.286 399.985 424.256 399.904 424.25 399.82C423.744 393.44 422.627 386.72 420.9 379.66C420.865 379.509 420.774 379.376 420.645 379.288C420.515 379.199 420.357 379.161 420.2 379.18L379.07 384.28C378.668 384.33 378.3 384.527 378.035 384.833C377.771 385.139 377.629 385.532 377.638 385.938C377.647 386.343 377.805 386.732 378.082 387.03C378.36 387.327 378.736 387.513 379.14 387.55C381.487 387.744 383.947 388.247 386.52 389.06C394.33 391.53 398.3 400.36 398.79 408.3C399.17 414.487 399.37 420.567 399.39 426.54C399.444 444.467 399.437 459.717 399.37 472.29C399.33 479.59 398.974 486.084 398.3 491.77C397.82 495.857 396.49 499.51 394.31 502.73C391.65 506.68 387.73 508.25 382.89 509.35C379.977 510.01 377.997 510.36 376.95 510.4C376.757 510.408 376.574 510.49 376.439 510.63C376.305 510.77 376.23 510.956 376.23 511.15V512.73C376.23 512.966 376.324 513.193 376.491 513.36C376.658 513.527 376.884 513.62 377.12 513.62H443.78C444.185 513.615 444.573 513.462 444.872 513.189C445.171 512.917 445.359 512.544 445.401 512.142C445.443 511.739 445.336 511.336 445.1 511.007C444.864 510.679 444.515 510.449 444.12 510.36C436.29 508.69 428.96 506.28 425.14 498.96C423.88 496.534 423.177 491.34 423.03 483.38C422.69 464.794 422.684 447.434 423.01 431.3C423.39 412.52 429.29 395.39 448.13 388.36C456.85 385.107 465.55 385.647 474.23 389.98" stroke="#C4AB69" stroke-width="2"/>
<path d="M474.77 379.18L474.23 389.98" stroke="#F7EA94" stroke-width="2"/>
<path d="M503.601 393.945C501.521 433.745 501.228 473.619 502.721 513.565" stroke="#C4AB69" stroke-width="2"/>
<path d="M528.202 391.225C527.302 390.419 526.072 389.992 524.512 389.945" stroke="#C4AB69" stroke-width="2"/>
<path d="M939.02 387.562C949.02 396.132 950.169 411.582 948.979 423.772C948.426 429.432 946.459 434.062 943.079 437.662" stroke="#C4AB69" stroke-width="2"/>
<path d="M943.08 437.656C937.267 442.183 930.704 445.38 923.39 447.246C913.29 449.826 903.86 452.446 899.82 453.756C887.69 457.706 877.55 464.576 874.3 477.186C870.5 491.906 876.09 506.386 890.3 512.586C898.434 516.14 907.384 517.286 917.15 516.026" stroke="#C4AB69" stroke-width="2"/>
<path d="M917.148 516.033C930.708 514.703 939.728 507.533 949.168 498.953C949.232 498.894 949.309 498.85 949.393 498.825C949.476 498.8 949.564 498.795 949.65 498.809C949.736 498.824 949.818 498.858 949.888 498.909C949.959 498.959 950.017 499.026 950.058 499.103C954.378 506.833 959.638 512.743 968.668 515.183C981.758 518.723 998.068 515.453 1003.15 501.023C1003.23 500.802 1003.25 500.565 1003.21 500.334C1003.16 500.102 1003.06 499.884 1002.91 499.699C1002.76 499.514 1002.57 499.368 1002.35 499.274C1002.12 499.181 1001.88 499.142 1001.64 499.163C1001.09 499.209 1000.69 499.383 1000.45 499.683C996.038 505.303 992.678 508.103 985.038 507.113C974.648 505.763 973.198 494.383 973.148 486.053C973.028 466.259 973.015 443.646 973.108 418.213C973.118 414.833 972.668 411.263 972.538 408.563C972.248 402.363 969.528 395.963 965.268 392.323C959.235 387.149 951.568 383.669 942.268 381.883" stroke="#C4AB69" stroke-width="2"/>
<path d="M942.269 381.878C927.456 378.071 912.659 378.201 897.879 382.268C891.869 383.928 884.699 386.788 880.589 391.678C874.239 399.248 879.459 410.108 888.959 410.908C899.699 411.808 901.379 403.518 904.909 395.558C906.002 393.098 907.039 391.285 908.019 390.118C916.099 380.478 929.149 380.068 939.019 387.558" stroke="#C4AB69" stroke-width="2"/>
<path d="M942.27 381.883L939.02 387.563" stroke="#C4AB69" stroke-width="2"/>
<path d="M917.149 516.025C917.482 514.252 917.452 512.475 917.059 510.695" stroke="#C4AB69" stroke-width="2"/>
<path d="M917.059 510.698C928.099 511.998 938.179 505.898 943.429 496.428C947.979 488.228 949.639 476.088 949.649 465.788C949.655 456.535 949.685 447.351 949.739 438.238C949.737 438.138 949.708 438.039 949.655 437.954C949.602 437.869 949.527 437.8 949.437 437.755C949.347 437.709 949.247 437.689 949.147 437.697C949.047 437.705 948.95 437.74 948.869 437.798L945.639 440.138" stroke="#C4AB69" stroke-width="2"/>
<path d="M945.638 440.136C945.165 438.776 944.311 437.95 943.078 437.656" stroke="#C4AB69" stroke-width="2"/>
<path d="M945.639 440.141C936.559 447.111 926.499 451.651 917.989 456.931C907.339 463.531 900.569 473.531 900.109 486.281C899.719 497.371 905.399 508.671 917.059 510.701" stroke="#C4AB69" stroke-width="2"/>
<path d="M699.69 510.349C696.077 509.816 692.597 508.826 689.25 507.379C680.53 503.599 678.39 496.329 678.17 487.539C677.93 478.166 677.82 469.999 677.84 463.039C677.854 453.619 677.847 425.819 677.82 379.639C677.821 379.576 677.808 379.514 677.782 379.456C677.756 379.398 677.717 379.347 677.669 379.305C677.62 379.263 677.563 379.232 677.502 379.214C677.44 379.196 677.374 379.191 677.31 379.199C659.81 381.399 645.424 383.199 634.15 384.599C633.29 384.706 632.827 385.209 632.76 386.109C632.73 386.495 632.84 386.877 633.067 387.18C633.295 387.484 633.624 387.687 633.99 387.749C640.96 388.899 646.2 389.829 650.18 396.509C653.89 402.729 653.92 408.729 654.22 416.049C654.36 419.336 654.434 422.499 654.44 425.539C654.454 437.033 654.457 452.123 654.45 470.809C654.45 479.219 654.42 488.329 652.09 497.289C650.104 504.943 643.537 509.309 632.39 510.389C632.074 510.419 631.78 510.566 631.565 510.801C631.351 511.035 631.232 511.341 631.23 511.659V512.019C631.23 512.433 631.396 512.83 631.69 513.123C631.985 513.415 632.384 513.579 632.8 513.579H699.59C699.671 513.579 699.75 513.564 699.824 513.533C699.898 513.502 699.965 513.457 700.022 513.401C700.078 513.344 700.123 513.277 700.154 513.203C700.185 513.129 700.2 513.05 700.2 512.969V510.939C700.2 510.796 700.148 510.658 700.054 510.55C699.961 510.442 699.832 510.371 699.69 510.349Z" stroke="#C4AB69" stroke-width="2"/>
<path d="M254.521 406.227C251.754 407.38 249.101 408.637 246.561 409.997C236.601 415.317 226.954 421.15 217.621 427.497" stroke="#C4AB69" stroke-width="2"/>
<path d="M217.621 427.5C210.994 431.813 204.384 436.137 197.791 440.47C186.738 447.73 175.181 453.997 163.121 459.27" stroke="#C4AB69" stroke-width="2"/>
<path d="M163.121 459.266C150.048 464.586 136.531 468.229 122.571 470.196C119.011 470.702 115.881 471.152 113.181 471.546C113.13 471.558 113.084 471.587 113.052 471.629C113.02 471.67 113.003 471.722 113.004 471.775C113.005 471.827 113.024 471.878 113.059 471.918C113.093 471.959 113.14 471.986 113.191 471.996C122.191 473.016 131.161 473.042 140.101 472.076C140.169 472.068 140.238 472.076 140.303 472.097C140.368 472.119 140.427 472.154 140.478 472.201C140.528 472.247 140.567 472.303 140.594 472.366C140.62 472.429 140.633 472.497 140.631 472.566C140.598 473.592 140.325 474.536 139.811 475.396" stroke="#C4AB69" stroke-width="2"/>
<path d="M139.809 475.398C137.149 482.465 134.249 488.432 131.109 493.298C127.595 498.738 122.929 502.492 117.109 504.558C114.115 505.618 108.439 506.295 100.079 506.588C99.7334 506.601 99.395 506.69 99.0885 506.849C98.7819 507.009 98.5149 507.235 98.3069 507.511C98.099 507.787 97.9553 508.106 97.8864 508.445C97.8175 508.783 97.8252 509.133 97.9088 509.468L97.9288 509.568C98.1224 510.348 98.5679 511.039 99.1916 511.527C99.8153 512.014 100.58 512.269 101.359 512.248L142.349 511.218" stroke="#C4AB69" stroke-width="2"/>
<path d="M142.352 511.216C151.378 511.369 160.375 511.659 169.342 512.086C173.155 512.273 176.255 512.273 178.642 512.086C181.262 511.886 182.368 510.599 181.962 508.226C181.911 507.929 181.776 507.653 181.572 507.431C181.368 507.209 181.104 507.051 180.812 506.976C175.622 505.616 169.402 507.426 164.242 504.776C160.255 502.729 158.685 499.023 159.532 493.656C160.518 487.396 162.238 481.373 164.692 475.586" stroke="#C4AB69" stroke-width="2"/>
<path d="M164.691 475.587L168.271 466.657C168.332 466.511 168.421 466.379 168.534 466.267C168.648 466.155 168.783 466.067 168.931 466.007C187.298 458.874 204.528 449.554 220.621 438.047" stroke="#C4AB69" stroke-width="2"/>
<path d="M220.621 438.047L254.991 416.047" stroke="#C4AB69" stroke-width="2"/>
<path d="M254.988 416.047C265.415 443.407 275.755 470.747 286.008 498.067C287.275 501.44 286.875 503.85 284.808 505.297C283.498 506.207 281.678 506.237 280.188 506.887C279.295 507.28 278.808 507.687 278.728 508.107C278.668 508.404 278.665 508.71 278.719 509.007C278.773 509.303 278.884 509.585 279.045 509.836C279.206 510.087 279.413 510.302 279.656 510.469C279.898 510.635 280.171 510.75 280.458 510.807C283.525 511.427 286.752 511.694 290.138 511.607" stroke="#C4AB69" stroke-width="2"/>
<path d="M290.141 511.609L308.761 512.019" stroke="#C4AB69" stroke-width="2"/>
<path d="M308.762 512.016L325.052 512.166" stroke="#C4AB69" stroke-width="2"/>
<path d="M325.051 512.168C335.924 512.342 346.791 512.328 357.651 512.128C359.824 512.088 361.834 511.725 363.681 511.038C363.982 510.923 364.226 510.693 364.361 510.398C364.941 509.105 364.821 508.038 364.001 507.198C363.664 506.862 363.227 506.651 362.761 506.598C362.707 506.592 359.994 506.468 354.621 506.228C344.621 505.775 336.864 501.625 331.351 493.778C330.464 492.518 329.541 491.225 328.581 489.898" stroke="#C4AB69" stroke-width="2"/>
<path d="M328.582 489.896C319.802 475.246 314.122 459.116 307.352 443.406" stroke="#C4AB69" stroke-width="2"/>
<path d="M307.348 443.409L290.078 400.609" stroke="#C4AB69" stroke-width="2"/>
<path d="M290.08 400.611C298.686 397.578 307.77 395.251 317.33 393.631C317.367 393.63 317.402 393.614 317.427 393.587C317.452 393.56 317.466 393.524 317.465 393.486C317.463 393.449 317.447 393.414 317.42 393.389C317.393 393.364 317.357 393.35 317.32 393.351C314.64 393.131 311.896 393.061 309.09 393.141C289.916 393.668 271.726 398.031 254.52 406.231" stroke="#C4AB69" stroke-width="2"/>
<path d="M290.078 400.609C289.465 438.089 289.485 475.089 290.138 511.609" stroke="#F7EA94" stroke-width="2"/>
<path d="M254.988 416.047C254.388 413.187 254.231 409.913 254.518 406.227" stroke="#EFDA7F" stroke-width="2"/>
<path d="M307.352 443.406C309.672 466.916 309.742 488.066 308.762 512.016" stroke="#C4AB69" stroke-width="2"/>
<path d="M220.621 438.05L217.621 427.5" stroke="#C4AB69" stroke-width="2"/>
<path d="M328.581 489.898L328.941 511.428C328.944 511.56 328.895 511.688 328.806 511.785C328.716 511.882 328.593 511.941 328.461 511.948L325.051 512.168" stroke="#C4AB69" stroke-width="2"/>
<path d="M164.691 475.586L163.121 459.266" stroke="#C4AB69" stroke-width="2"/>
<path d="M142.349 511.218L139.809 475.398" stroke="#EFDA7F" stroke-width="2"/>
<path d="M577.618 32.7292L578.368 71.8892C575.521 64.2625 571.728 57.1792 566.988 50.6392C561.108 42.5258 554.378 35.3625 546.798 29.1492L545.168 2.18916C545.568 1.69583 546.035 1.32584 546.568 1.07917C546.71 1.01331 546.866 0.987774 547.02 1.00544C547.174 1.02311 547.319 1.0833 547.438 1.17918C559.111 10.2392 569.171 20.7558 577.618 32.7292Z" fill="#C4AB69"/>
<path d="M545.171 2.1875L546.801 29.1475C533.227 40.5342 523.041 54.0675 516.241 69.7475C515.214 64.6475 514.731 60.3075 514.791 56.7275C514.911 49.6342 514.861 42.4342 514.641 35.1275C522.981 22.7808 533.157 11.8008 545.171 2.1875Z" fill="#C4AB69"/>
<path d="M578.371 71.8866L577.621 32.7266C580.574 36.8199 583.444 41.7032 586.231 47.3766C601.231 77.8766 598.071 111.817 581.621 140.867C581.578 140.95 581.507 141.015 581.42 141.049C581.333 141.084 581.237 141.087 581.148 141.057C581.06 141.026 580.985 140.965 580.938 140.884C580.891 140.804 580.874 140.709 580.891 140.617C582.244 132.63 583.294 125.27 584.041 118.537C585.821 102.417 583.931 86.8666 578.371 71.8866Z" fill="#C4AB69"/>
<path d="M514.639 35.1328C514.859 42.4395 514.909 49.6395 514.789 56.7328C514.729 60.3128 515.212 64.6528 516.239 69.7528C510.199 84.9728 507.939 100.739 509.459 117.053C510.139 124.346 511.296 132.316 512.929 140.963C512.936 141.017 512.924 141.072 512.896 141.118C512.867 141.165 512.824 141.2 512.773 141.219C512.722 141.237 512.666 141.238 512.614 141.22C512.563 141.203 512.518 141.169 512.489 141.123C493.129 107.373 492.509 67.8128 514.639 35.1328Z" fill="#C4AB69"/>
<path d="M404.771 64.0725C404.611 76.1125 405.101 88.2325 404.861 100.103C404.614 112.176 404.697 124.246 405.111 136.312C405.191 138.493 405.007 140.673 404.561 142.853C391.511 117.963 388.821 91.3625 390.271 64.2025C390.276 64.0972 390.322 63.9979 390.401 63.9253C390.479 63.8527 390.583 63.8123 390.691 63.8125L404.771 64.0725Z" fill="#C4AB69"/>
<path d="M691.479 138.326L691.309 64.1564L703.129 63.9064C703.255 63.9036 703.378 63.9499 703.471 64.0356C703.565 64.1214 703.621 64.2399 703.629 64.3664C703.922 70.6397 703.982 76.9464 703.809 83.2864C703.395 98.173 700.972 112.42 696.539 126.026C695.159 130.26 693.472 134.36 691.479 138.326Z" fill="#C4AB69"/>
<path d="M415.519 65.2103C414.239 72.397 414.102 79.6137 415.109 86.8603L409.519 87.3003C409.35 87.3149 409.192 87.3902 409.076 87.512C408.96 87.6337 408.893 87.7933 408.889 87.9603C408.555 105.414 411.882 122.28 418.869 138.56L418.629 162.33C413.162 156.457 408.472 149.964 404.559 142.85C405.005 140.67 405.189 138.49 405.109 136.31C404.695 124.244 404.612 112.174 404.859 100.1C405.099 88.2303 404.609 76.1103 404.769 64.0703L415.519 65.2103Z" fill="#C4AB69"/>
<path d="M691.309 64.1562L691.479 138.326C688.272 145.333 684.249 151.836 679.409 157.836L677.739 131.236C682.566 117.663 685.096 103.493 685.329 88.7263C685.334 88.3749 685.203 88.0353 684.962 87.7794C684.721 87.5236 684.39 87.3718 684.039 87.3563L675.379 86.9763L678.469 86.6963C678.608 86.6817 678.736 86.6176 678.83 86.5163C678.924 86.4149 678.977 86.2832 678.979 86.1462L679.039 65.1162L691.309 64.1562Z" fill="#C4AB69"/>
<path d="M679.039 65.1172L678.979 86.1472C678.977 86.2842 678.924 86.4159 678.83 86.5172C678.736 86.6186 678.608 86.6826 678.469 86.6972L675.379 86.9772C667.759 87.1572 660.229 88.1905 652.789 90.0772L653.239 71.1372C661.539 67.8839 670.139 65.8772 679.039 65.1172Z" fill="#C4AB69"/>
<path d="M445.39 73.1209L445.4 91.4109C435.48 88.3309 425.383 86.8143 415.11 86.8609C414.103 79.6143 414.24 72.3976 415.52 65.2109C425.927 66.4243 435.883 69.0609 445.39 73.1209Z" fill="#C4AB69"/>
<path d="M653.24 71.1406L652.79 90.0806C639.437 93.9873 626.88 99.8173 615.12 107.571L614.75 96.7206C625.69 85.3206 638.52 76.794 653.24 71.1406Z" fill="#C4AB69"/>
<path d="M445.391 73.1172C461.531 80.1905 475.077 90.5972 486.031 104.337C489.764 109.017 493.507 114.317 497.261 120.237C497.275 120.253 497.283 120.274 497.282 120.296C497.281 120.317 497.272 120.338 497.256 120.352C497.24 120.367 497.219 120.374 497.197 120.374C497.176 120.373 497.155 120.363 497.141 120.347C480.891 108.267 464.571 97.9172 445.401 91.4072L445.391 73.1172Z" fill="#C4AB69"/>
<path d="M614.751 96.7188L615.121 107.569L596.591 120.719C596.55 120.756 596.496 120.777 596.441 120.776C596.386 120.776 596.333 120.754 596.292 120.717C596.252 120.679 596.227 120.627 596.223 120.572C596.219 120.517 596.236 120.462 596.271 120.419C601.451 111.805 607.611 103.905 614.751 96.7188Z" fill="#C4AB69"/>
<path d="M559.601 139.598C558.581 147.584 558.335 155.694 558.861 163.928C554.895 156.474 549.635 150.324 543.081 145.478L542.941 130.218L547.901 122.268C547.947 122.198 548.009 122.14 548.082 122.1C548.156 122.06 548.238 122.039 548.321 122.039C548.405 122.039 548.487 122.06 548.561 122.1C548.634 122.14 548.696 122.198 548.741 122.268L559.601 139.598Z" fill="#C4AB69"/>
<path d="M543.079 145.479L536.429 141.559C536.361 141.518 536.303 141.465 536.256 141.401C536.21 141.337 536.177 141.264 536.16 141.187C536.142 141.109 536.14 141.029 536.153 140.95C536.167 140.872 536.196 140.796 536.239 140.729L542.939 130.219L543.079 145.479Z" fill="#C4AB69"/>
<path d="M677.74 131.242L679.41 157.842C671.49 167.382 662.153 175.416 651.4 181.942C651.367 181.963 651.328 181.971 651.289 181.966C651.25 181.961 651.215 181.943 651.188 181.915C651.161 181.887 651.145 181.851 651.141 181.812C651.138 181.773 651.148 181.734 651.17 181.702C661.75 165.692 671.09 149.332 677.74 131.242Z" fill="#C4AB69"/>
<path d="M418.869 138.562C421.509 144.776 423.549 149.243 424.989 151.963C430.422 162.236 436.372 172.093 442.839 181.533C442.887 181.608 442.909 181.698 442.9 181.788C442.891 181.877 442.852 181.961 442.79 182.025C442.727 182.09 442.645 182.132 442.556 182.144C442.467 182.156 442.376 182.138 442.299 182.092C433.439 176.546 425.549 169.959 418.629 162.333L418.869 138.562Z" fill="#C4AB69"/>
<path d="M559.599 139.602L577.669 169.462L577.149 185.172L565.009 177.172C564.913 177.108 564.84 177.015 564.8 176.907C564.76 176.798 564.757 176.68 564.789 176.57C564.821 176.459 564.888 176.362 564.98 176.292C565.072 176.222 565.184 176.183 565.299 176.182C565.979 176.175 566.336 176.165 566.369 176.152C566.557 176.043 566.711 175.884 566.812 175.692C566.914 175.5 566.959 175.283 566.942 175.066C566.925 174.849 566.848 174.642 566.718 174.468C566.588 174.294 566.412 174.16 566.209 174.082L563.429 173.022C563.197 172.932 563.011 172.76 562.909 172.542L558.859 163.932C558.332 155.698 558.579 147.588 559.599 139.602Z" fill="#C4AB69"/>
<path d="M475.209 143.018C475.589 146.344 475.776 148.654 475.769 149.948C475.603 172.108 475.556 187.484 475.629 196.078C475.649 198.558 475.449 200.638 475.029 202.318C467.929 183.728 468.349 162.338 472.839 143.188C472.878 143.028 472.963 142.884 473.084 142.773C473.205 142.663 473.357 142.591 473.519 142.568C474.006 142.488 474.569 142.638 475.209 143.018Z" fill="#C4AB69"/>
<path d="M617.602 215.58L620.952 208.33C621.057 208.085 621.115 207.824 621.122 207.56C621.282 186.41 621.612 166.81 620.902 144.15C622.362 143.43 623.925 142.953 625.592 142.72C625.785 142.692 625.982 142.731 626.149 142.831C626.317 142.932 626.445 143.086 626.512 143.27C627.445 145.796 627.928 148.29 627.962 150.75C627.962 151.002 627.992 151.254 628.052 151.5C628.682 154.26 629.182 156.4 629.312 158.67C629.752 166.256 629.868 172.626 629.662 177.78C629.515 181.406 628.898 186.126 627.812 191.94C627.258 194.926 626.352 197.953 625.092 201.02C622.882 206.38 621.062 211.55 617.602 215.58Z" fill="#C4AB69"/>
<path d="M478.611 144.076C479.151 161.676 479.355 179.236 479.221 196.756C479.195 200.989 478.975 205.309 478.561 209.716L475.031 202.316C475.451 200.636 475.651 198.556 475.631 196.076C475.558 187.482 475.605 172.106 475.771 149.946C475.778 148.652 475.591 146.342 475.211 143.016L478.611 144.076Z" fill="#C4AB69"/>
<path d="M487.229 147.398C487.202 169.491 487.195 191.531 487.209 213.518C487.209 215.431 487.015 218.028 486.629 221.308C483.355 217.761 480.665 213.898 478.559 209.718C478.972 205.311 479.192 200.991 479.219 196.758C479.352 179.238 479.149 161.678 478.609 144.078L487.229 147.398Z" fill="#C4AB69"/>
<path d="M620.899 144.148C621.609 166.808 621.279 186.408 621.119 207.558C621.112 207.823 621.054 208.084 620.949 208.328L617.599 215.578L608.429 226.158C608.162 223.518 608.042 221.675 608.069 220.628C608.555 200.515 608.509 180.402 607.929 160.288C607.882 158.475 607.986 154.768 608.239 149.168L620.899 144.148Z" fill="#C4AB69"/>
<path d="M541.369 152.5C541.319 157.62 541.569 163.03 541.339 167.8C540.606 183.28 540.626 198.76 541.399 214.24C541.413 214.572 541.325 214.9 541.149 215.18L536.569 222.61L533.669 225.91C532.796 223.157 532.336 220.64 532.289 218.36C531.979 202.14 532.519 184.66 532.349 167.9C532.276 160.96 532.256 154.003 532.289 147.03C532.689 146.243 533.156 145.637 533.689 145.21C533.805 145.12 533.95 145.077 534.096 145.088C534.242 145.099 534.379 145.164 534.479 145.27L541.369 152.5Z" fill="#C4AB69"/>
<path d="M532.291 147.031C532.257 154.005 532.277 160.961 532.351 167.901C532.521 184.661 531.981 202.141 532.291 218.361C532.337 220.641 532.797 223.158 533.671 225.911C530.377 229.351 526.697 232.375 522.631 234.981C523.751 216.711 523.261 198.181 523.091 179.881C523.037 174.421 522.774 168.978 522.301 163.551L532.291 147.031Z" fill="#C4AB69"/>
<path d="M487.229 147.398C493.576 150.032 499.486 153.178 504.959 156.838C505.152 156.967 505.292 157.162 505.353 157.386C505.414 157.611 505.391 157.85 505.289 158.058C498.459 171.838 495.249 186.938 496.759 201.958C498.029 214.528 503.319 227.958 509.919 239.038C509.954 239.095 509.969 239.161 509.962 239.227C509.955 239.293 509.926 239.354 509.881 239.402C509.835 239.45 509.775 239.482 509.709 239.492C509.644 239.502 509.577 239.49 509.519 239.458C500.799 234.872 493.169 228.822 486.629 221.308C487.016 218.028 487.209 215.432 487.209 213.518C487.196 191.532 487.202 169.492 487.229 147.398Z" fill="#C4AB69"/>
<path d="M608.239 149.172C607.986 154.772 607.883 158.479 607.929 160.292C608.509 180.405 608.556 200.519 608.069 220.632C608.043 221.679 608.163 223.522 608.429 226.162C602.689 231.642 596.396 236.295 589.549 240.122C589.475 240.166 589.388 240.183 589.302 240.172C589.217 240.16 589.138 240.119 589.077 240.057C589.017 239.994 588.978 239.912 588.968 239.824C588.957 239.737 588.975 239.648 589.019 239.572C591.253 235.819 593.119 232.412 594.619 229.352C606.313 205.472 606.103 181.639 593.989 157.852C593.907 157.688 593.891 157.499 593.945 157.324C593.999 157.148 594.119 157.001 594.279 156.912L608.239 149.172Z" fill="#C4AB69"/>
<path d="M536.57 222.61L541.15 215.18C541.326 214.9 541.413 214.572 541.4 214.24C540.627 198.76 540.607 183.28 541.34 167.8C541.57 163.03 541.32 157.62 541.37 152.5C547.26 159.41 550.52 168.57 551.97 177.54C553.92 189.64 549.82 201.9 543.98 212.78C541.874 216.707 539.404 219.983 536.57 222.61Z" fill="#C4AB69"/>
<path d="M522.298 163.547C522.771 168.974 523.035 174.417 523.088 179.877C523.258 198.177 523.748 216.707 522.628 234.977L517.688 237.737C517.329 237.936 516.911 238.003 516.507 237.926C516.104 237.849 515.74 237.634 515.478 237.317L510.628 231.437C510.981 228.317 511.168 225.97 511.188 224.397C511.255 218.35 511.255 207.674 511.188 192.367C511.188 191.007 510.818 188.934 510.078 186.147L522.298 163.547Z" fill="#C4AB69"/>
<path d="M579.629 238.571L577.549 227.811C583.669 222.251 574.079 219.071 576.129 212.961C576.202 212.75 576.322 212.559 576.479 212.401L578.709 210.211C578.818 210.106 578.899 209.976 578.946 209.831C578.993 209.687 579.004 209.532 578.979 209.381C578.659 207.548 577.643 206.464 575.929 206.131C575.885 206.122 575.845 206.1 575.815 206.066C575.784 206.033 575.766 205.991 575.761 205.946C575.757 205.901 575.767 205.856 575.79 205.817C575.813 205.778 575.848 205.748 575.889 205.731C579.059 204.541 582.709 200.711 577.409 198.711C575.239 197.891 571.829 194.391 574.999 192.271C576.233 191.438 577.543 190.398 578.929 189.151C579.086 189.011 579.211 188.841 579.299 188.651C579.386 188.46 579.433 188.254 579.437 188.045C579.44 187.835 579.401 187.627 579.32 187.434C579.24 187.241 579.121 187.066 578.969 186.921L577.149 185.171L577.669 169.461C582.056 176.861 585.759 184.538 588.779 192.491C591.426 199.451 592.736 205.234 592.709 209.841C592.649 220.611 587.539 231.301 579.629 238.571Z" fill="#C4AB69"/>
<path d="M392.069 173.367C390.682 178.207 390.219 183.187 390.679 188.307C389.146 188.734 387.619 189.097 386.099 189.397C376.679 191.271 367.836 194.667 359.569 199.587L358.789 179.227C369.522 175.494 380.616 173.541 392.069 173.367Z" fill="#C4AB69"/>
<path d="M390.68 188.312C390.22 183.192 390.683 178.212 392.07 173.372C408.623 173.119 424.393 176.582 439.38 183.762C445.806 186.842 452.383 190.529 459.11 194.822C459.172 194.858 459.219 194.916 459.24 194.984C459.261 195.052 459.256 195.125 459.225 195.191C459.194 195.256 459.14 195.309 459.072 195.339C459.005 195.369 458.929 195.373 458.86 195.352C448.506 192.099 438.006 189.729 427.36 188.242C415.073 186.522 402.846 186.546 390.68 188.312Z" fill="#C4AB69"/>
<path d="M711.049 173.942L710.319 189.852C702.839 188.085 695.273 187.112 687.619 186.932L686.609 174.202C694.756 173.142 702.903 173.055 711.049 173.942Z" fill="#C4AB69"/>
<path d="M733.19 178.408C733.61 185.101 733.297 191.778 732.25 198.438C725.284 194.544 717.974 191.681 710.32 189.848L711.05 173.938C718.65 174.711 726.03 176.201 733.19 178.408Z" fill="#C4AB69"/>
<path d="M686.611 174.195L687.621 186.925C669.421 186.772 651.471 189.812 633.771 196.045C633.691 196.082 633.599 196.087 633.515 196.057C633.432 196.027 633.363 195.966 633.324 195.887C633.285 195.807 633.278 195.715 633.306 195.631C633.333 195.547 633.393 195.476 633.471 195.435C648.821 185.215 668.011 176.305 686.611 174.195Z" fill="#C4AB69"/>
<path d="M750.46 185.226L752.16 236.576L737.62 252.836L735.65 222.226L744.41 208.286C744.609 207.972 744.677 207.592 744.601 207.228C744.524 206.864 744.309 206.544 744 206.336L732.25 198.436C733.297 191.776 733.61 185.1 733.19 178.406L750.46 185.226Z" fill="#C4AB69"/>
<path d="M358.791 179.227L359.571 199.587L349.701 206.907C349.442 207.099 349.265 207.382 349.206 207.699C349.147 208.016 349.209 208.344 349.381 208.617L351.861 212.557L352.811 249.287L341.041 235.777C342.008 219.57 341.618 203.293 339.871 186.947C345.924 183.887 352.231 181.313 358.791 179.227Z" fill="#C4AB69"/>
<path d="M752.161 236.577L750.461 185.227C759.461 189.453 768.068 194.373 776.281 199.987C776.41 200.074 776.501 200.208 776.534 200.361C776.568 200.513 776.542 200.673 776.461 200.807C769.148 213.227 761.048 225.15 752.161 236.577Z" fill="#C4AB69"/>
<path d="M510.631 231.438C503.405 220.798 501.775 209.458 505.741 197.418C506.988 193.638 508.435 189.882 510.081 186.148C510.821 188.935 511.191 191.008 511.191 192.368C511.258 207.675 511.258 218.352 511.191 224.398C511.171 225.972 510.985 228.318 510.631 231.438Z" fill="#C4AB69"/>
<path d="M339.87 186.945C341.617 203.292 342.007 219.569 341.04 235.775C332.493 224.622 324.603 212.939 317.37 200.725C317.299 200.609 317.276 200.47 317.306 200.336C317.335 200.202 317.416 200.084 317.53 200.005C324.637 195.145 332.083 190.792 339.87 186.945Z" fill="#C4AB69"/>
<path d="M641.889 197.041C640.319 206.491 640.739 213.321 640.979 224.761C641.032 227.241 640.162 230.028 638.369 233.121C633.975 237.015 629.065 240.318 623.639 243.031L622.559 223.721C629.779 216.041 635.355 207.291 639.289 197.471C639.351 197.319 639.448 197.185 639.571 197.079C639.695 196.973 639.841 196.898 639.999 196.861C640.499 196.735 641.129 196.795 641.889 197.041Z" fill="#C4AB69"/>
<path d="M471.871 217.841L470.351 239.971C462.965 235.251 456.618 229.285 451.311 222.071C452.398 214.138 452.358 206.248 451.191 198.401L458.721 197.021C459.115 196.948 459.521 197.014 459.872 197.21C460.222 197.405 460.494 197.717 460.641 198.091C463.335 205.005 467.078 211.588 471.871 217.841Z" fill="#C4AB69"/>
<path d="M638.371 233.119C640.164 230.026 641.034 227.239 640.981 224.759C640.741 213.319 640.321 206.489 641.891 197.039C647.871 197.966 653.618 199.566 659.131 201.839C659.274 201.898 659.388 202.012 659.447 202.156C659.507 202.3 659.509 202.463 659.451 202.609C654.664 214.282 647.638 224.452 638.371 233.119Z" fill="#C4AB69"/>
<path d="M451.191 198.398C452.358 206.245 452.398 214.135 451.311 222.068C446.678 216.028 442.898 209.508 439.971 202.508C439.939 202.433 439.924 202.351 439.926 202.269C439.928 202.187 439.947 202.106 439.981 202.032C440.016 201.957 440.066 201.891 440.128 201.837C440.19 201.783 440.263 201.743 440.341 201.718L451.191 198.398Z" fill="#C4AB69"/>
<path d="M392.339 255.522L390.609 276.932C376.209 270.326 363.609 261.112 352.809 249.292L351.859 212.562C356.479 220.116 361.506 227.243 366.939 233.943C374.046 242.723 382.513 249.916 392.339 255.522Z" fill="#C4AB69"/>
<path d="M471.872 217.836C481.278 229.169 492.635 238.163 505.942 244.816C506.147 244.922 506.339 245.057 506.512 245.216C507.152 245.809 507.838 246.286 508.572 246.646C508.621 246.671 508.662 246.711 508.687 246.76C508.712 246.81 508.721 246.866 508.712 246.92C508.703 246.975 508.677 247.026 508.637 247.064C508.597 247.103 508.546 247.128 508.492 247.136C501.698 248.176 494.822 248.043 487.862 246.736C481.582 245.563 475.745 243.306 470.352 239.966L471.872 217.836Z" fill="#C4AB69"/>
<path d="M737.621 252.837C727.894 262.73 716.737 270.603 704.151 276.457L703.641 254.237C717.071 246.087 726.811 235.067 735.651 222.227L737.621 252.837Z" fill="#C4AB69"/>
<path d="M622.561 223.719L623.641 243.029C612.781 247.589 601.358 249.052 589.371 247.419C589.297 247.409 589.228 247.376 589.175 247.323C589.122 247.271 589.088 247.202 589.077 247.128C589.067 247.054 589.082 246.979 589.118 246.914C589.155 246.849 589.212 246.798 589.281 246.769C601.821 241.269 612.914 233.585 622.561 223.719Z" fill="#C4AB69"/>
<path d="M577.548 227.812L579.628 238.573C576.141 241.819 572.095 244.443 567.488 246.443C566.528 241.383 566.251 236.282 566.658 231.142C570.705 230.849 574.335 229.739 577.548 227.812Z" fill="#C4AB69"/>
<path d="M566.661 231.137C566.255 236.277 566.531 241.377 567.491 246.437C564.225 248.011 560.695 249.027 556.901 249.487L545.061 250.427L533.411 248.287C533.345 248.275 533.283 248.245 533.232 248.2C533.181 248.156 533.142 248.098 533.121 248.034C533.1 247.97 533.096 247.901 533.11 247.835C533.124 247.769 533.156 247.707 533.201 247.657C537.621 242.744 540.861 239.227 542.921 237.107C543.888 236.114 544.938 235.234 546.071 234.467C546.337 234.288 546.622 234.14 546.921 234.027C553.128 231.694 559.708 230.731 566.661 231.137Z" fill="#C4AB69"/>
<path d="M556.899 249.492C556.439 249.866 556.319 250.136 556.539 250.302C557.012 250.656 557.632 250.882 558.399 250.982L545.549 251.222L545.839 251.012C545.867 250.994 545.889 250.968 545.903 250.937C545.917 250.907 545.922 250.873 545.918 250.84C545.914 250.807 545.9 250.775 545.879 250.749C545.858 250.723 545.83 250.703 545.799 250.692L545.059 250.432L556.899 249.492Z" fill="#C4AB69"/>
<path d="M558.402 250.977C573.112 251.557 589.312 255.357 600.722 264.667C608.548 271.053 615.205 276.853 620.692 282.067C620.735 282.112 620.76 282.171 620.764 282.234C620.768 282.296 620.751 282.359 620.714 282.409C620.677 282.46 620.624 282.497 620.564 282.513C620.503 282.529 620.439 282.523 620.382 282.497C611.388 277.837 601.952 273.773 592.072 270.307C577.498 265.187 562.535 263.88 547.182 266.387C547.435 261.153 546.712 256.123 545.012 251.297C545.205 251.31 545.385 251.283 545.552 251.217L558.402 250.977Z" fill="#C4AB69"/>
<path d="M545.009 251.297C546.709 256.124 547.432 261.154 547.179 266.387C527.449 269.767 508.889 277.927 491.069 286.867L489.309 270.347C502.149 263.857 515.539 256.957 529.319 252.727C532.285 251.82 537.515 251.344 545.009 251.297Z" fill="#C4AB69"/>
<path d="M703.639 254.242L704.149 276.462C696.476 280.089 688.382 282.136 679.869 282.602L676.539 264.372C686.292 262.772 695.326 259.396 703.639 254.242Z" fill="#C4AB69"/>
<path d="M392.339 255.516C402.973 261.502 414.473 264.756 426.839 265.276C429.766 265.396 432.696 265.479 435.629 265.526C437.149 270.099 437.813 274.826 437.619 279.706C421.446 284.526 405.776 283.599 390.609 276.926L392.339 255.516Z" fill="#C4AB69"/>
<path d="M274.362 360.813L276.092 376.952C258.062 385.102 242.952 393.752 224.592 404.282C223.005 398.669 221.928 392.896 221.362 386.962L239.942 376.532C240.062 376.465 240.153 376.357 240.201 376.227C240.249 376.097 240.249 375.954 240.202 375.823L222.412 326.743C220.778 309.903 219.812 293.006 219.512 276.052C220.602 273.232 224.822 260.773 229.102 260.133C233.812 259.433 236.422 266.792 238.052 270.782C250.265 300.676 262.368 330.686 274.362 360.813Z" fill="#C4AB69"/>
<path d="M437.619 279.712C437.812 274.832 437.149 270.105 435.629 265.532C447.856 265.025 459.899 263.312 471.759 260.392C471.842 260.373 471.929 260.383 472.005 260.419C472.082 260.456 472.144 260.517 472.182 260.593C472.22 260.669 472.232 260.755 472.215 260.839C472.198 260.922 472.154 260.997 472.089 261.052C461.956 269.685 450.466 275.905 437.619 279.712Z" fill="#C4AB69"/>
<path d="M654.779 265.5C655.992 270.247 656.279 274.89 655.639 279.43C642.772 275.67 631.382 269.507 621.469 260.94C621.406 260.886 621.363 260.812 621.347 260.73C621.331 260.648 621.343 260.564 621.381 260.489C621.419 260.415 621.481 260.356 621.557 260.322C621.633 260.288 621.718 260.28 621.799 260.3C633.026 262.913 644.019 264.647 654.779 265.5Z" fill="#C4AB69"/>
<path d="M387.039 293.491L386.519 307.631C360.009 299.321 337.929 282.301 318.729 262.601C318.684 262.564 318.655 262.511 318.649 262.452C318.644 262.394 318.662 262.336 318.699 262.291C318.736 262.246 318.789 262.218 318.847 262.212C318.906 262.206 318.964 262.224 319.009 262.261C340.179 276.471 362.119 287.881 387.039 293.491Z" fill="#C4AB69"/>
<path d="M676.541 264.367L679.871 282.597C671.585 282.751 663.508 281.694 655.641 279.427C656.281 274.887 655.995 270.244 654.781 265.497C662.221 265.824 669.475 265.447 676.541 264.367Z" fill="#C4AB69"/>
<path d="M726.64 301.999L724.82 287.519C740.74 282.272 756.25 275.895 771.35 268.389C771.51 268.315 771.634 268.309 771.72 268.369C771.751 268.39 771.776 268.418 771.795 268.45C771.814 268.482 771.825 268.518 771.829 268.555C771.833 268.592 771.829 268.629 771.817 268.664C771.805 268.699 771.786 268.731 771.76 268.759C758.454 282.272 743.414 293.352 726.64 301.999Z" fill="#C4AB69"/>
<path d="M489.31 270.352L491.07 286.872C482.03 291.425 472.873 295.738 463.6 299.812C452.033 304.892 440.046 308.512 427.64 310.672L426.59 294.172C438.543 292.032 450.143 288.498 461.39 283.572C470.81 279.445 480.116 275.038 489.31 270.352Z" fill="#C4AB69"/>
<path d="M642.779 293.961L644.109 311.521C633.135 309.021 623.362 306.378 614.789 303.591C600.709 299.011 587.755 295.328 575.929 292.541C560.689 288.955 545.202 288.198 529.469 290.271L531.089 277.631C539.615 274.671 547.865 273.225 555.839 273.291C566.399 273.371 577.602 275.188 589.449 278.741C600.902 282.168 612.315 285.745 623.689 289.471C628.042 290.898 634.405 292.395 642.779 293.961Z" fill="#C4AB69"/>
<path d="M219.508 276.047C219.808 293 220.775 309.897 222.408 326.737C221.688 326.384 221.105 326.627 220.658 327.467C220.225 328.287 219.851 329.12 219.538 329.967C212.045 349.854 202.868 374.214 192.008 403.047C191.868 403.427 191.998 403.657 192.398 403.737C192.571 403.777 192.795 403.714 193.068 403.547C202.415 397.954 211.845 392.424 221.358 386.957C221.925 392.89 223.001 398.664 224.588 404.277C207.775 414.57 190.495 423.95 172.748 432.417C169.681 433.884 166.521 435.27 163.268 436.577L162.328 419.377L219.508 276.047Z" fill="#C4AB69"/>
<path d="M531.089 277.633L529.469 290.273C522.502 291.619 516.556 293.299 511.629 295.313C503.396 298.666 495.032 302.479 486.539 306.753C486.507 306.767 486.472 306.77 486.438 306.76C486.405 306.751 486.376 306.731 486.356 306.702C486.336 306.674 486.326 306.64 486.328 306.605C486.331 306.571 486.345 306.538 486.369 306.513C499.329 294.353 514.319 283.643 531.089 277.633Z" fill="#C4AB69"/>
<path d="M724.821 287.516L726.641 301.996C700.551 315.406 672.511 317.676 644.111 311.516L642.781 293.956C650.975 295.469 657.745 296.342 663.091 296.576C683.618 297.476 704.195 294.456 724.821 287.516Z" fill="#C4AB69"/>
<path d="M426.59 294.172L427.64 310.672C413.7 312.732 399.993 311.719 386.52 307.632L387.04 293.492C393.06 294.446 397.003 295.019 398.87 295.212C407.676 296.125 416.916 295.779 426.59 294.172Z" fill="#C4AB69"/>
<path d="M765.521 439.495L764.571 446.885L755.931 456.255C755.442 456.789 755.167 457.488 755.161 458.215C754.981 471.882 755.128 482.742 755.601 490.795C756.401 504.315 764.921 507.565 776.451 510.415C776.831 510.514 777.162 510.748 777.384 511.073C777.605 511.398 777.702 511.791 777.655 512.181C777.609 512.57 777.422 512.928 777.131 513.188C776.839 513.449 776.463 513.593 776.071 513.595H709.541C709.255 513.595 708.98 513.481 708.777 513.279C708.575 513.076 708.461 512.802 708.461 512.515V511.475C708.46 511.198 708.565 510.931 708.754 510.728C708.943 510.524 709.203 510.398 709.481 510.375C720.751 509.435 728.311 505.095 730.371 493.025C731.098 488.792 731.504 483.212 731.591 476.285C731.751 463.652 731.768 429.902 731.641 375.035C731.634 369.689 731.311 364.589 730.671 359.735C729.871 353.645 726.461 347.135 720.791 344.315C717.991 342.925 714.461 342.465 711.261 342.125C710.951 342.093 710.665 341.948 710.456 341.717C710.248 341.486 710.132 341.186 710.131 340.875C710.131 339.469 710.638 338.705 711.651 338.585C723.444 337.172 737.724 335.382 754.491 333.215C754.571 333.205 754.653 333.213 754.731 333.237C754.808 333.261 754.879 333.301 754.94 333.355C755.001 333.409 755.049 333.476 755.082 333.55C755.115 333.624 755.132 333.704 755.131 333.785V449.705C755.13 449.803 755.16 449.898 755.215 449.979C755.27 450.06 755.349 450.122 755.44 450.156C755.531 450.191 755.631 450.197 755.726 450.174C755.821 450.15 755.906 450.099 755.971 450.025L765.521 439.495Z" fill="#C4AB69"/>
<path d="M663.363 364.414C671.097 364.184 677.186 357.903 676.963 350.384C676.739 342.866 670.289 336.956 662.555 337.186C654.821 337.415 648.732 343.697 648.955 351.216C649.178 358.734 655.629 364.643 663.363 364.414Z" fill="#C4AB69"/>
<path d="M383.079 352.628L384.539 360.878C361.539 357.591 338.746 358.408 316.159 363.328L313.879 349.878C337.046 346.225 360.112 347.141 383.079 352.628Z" fill="#C4AB69"/>
<path d="M313.879 349.883L316.159 363.333C302.419 366.586 289.063 371.126 276.089 376.953L274.359 360.813C287.346 355.746 300.519 352.103 313.879 349.883Z" fill="#C4AB69"/>
<path d="M384.538 360.883L383.078 352.633C400.605 356.986 417.408 363.319 433.488 371.633C433.51 371.643 433.529 371.657 433.544 371.676C433.56 371.694 433.571 371.716 433.578 371.739C433.584 371.763 433.586 371.788 433.583 371.812C433.579 371.837 433.571 371.861 433.558 371.883L433.388 372.173C433.368 372.209 433.335 372.237 433.294 372.251C433.254 372.266 433.21 372.266 433.168 372.253C417.288 367.019 401.078 363.229 384.538 360.883Z" fill="#C4AB69"/>
<path d="M474.77 379.18L474.23 389.98C465.55 385.647 456.85 385.107 448.13 388.36C429.29 395.39 423.39 412.52 423.01 431.3C422.684 447.434 422.69 464.794 423.03 483.38C423.177 491.34 423.88 496.534 425.14 498.96C428.96 506.28 436.29 508.69 444.12 510.36C444.515 510.449 444.864 510.679 445.1 511.007C445.336 511.336 445.443 511.739 445.401 512.142C445.359 512.544 445.171 512.917 444.872 513.189C444.573 513.462 444.185 513.615 443.78 513.62H377.12C376.884 513.62 376.658 513.527 376.491 513.36C376.324 513.193 376.23 512.966 376.23 512.73V511.15C376.23 510.956 376.305 510.77 376.439 510.63C376.574 510.49 376.757 510.408 376.95 510.4C377.997 510.36 379.977 510.01 382.89 509.35C387.73 508.25 391.65 506.68 394.31 502.73C396.49 499.51 397.82 495.857 398.3 491.77C398.974 486.084 399.33 479.59 399.37 472.29C399.437 459.717 399.444 444.467 399.39 426.54C399.37 420.567 399.17 414.487 398.79 408.3C398.3 400.36 394.33 391.53 386.52 389.06C383.947 388.247 381.487 387.744 379.14 387.55C378.736 387.513 378.36 387.327 378.082 387.03C377.805 386.732 377.647 386.343 377.638 385.938C377.629 385.532 377.771 385.139 378.035 384.833C378.3 384.527 378.668 384.33 379.07 384.28L420.2 379.18C420.357 379.161 420.515 379.199 420.645 379.288C420.774 379.376 420.865 379.509 420.9 379.66C422.627 386.72 423.744 393.44 424.25 399.82C424.256 399.904 424.286 399.985 424.337 400.053C424.388 400.12 424.456 400.172 424.535 400.201C424.615 400.231 424.7 400.237 424.783 400.219C424.865 400.201 424.941 400.16 425 400.1C427.587 397.52 429.964 395.35 432.13 393.59C444.544 383.51 458.757 378.707 474.77 379.18Z" fill="#C4AB69"/>
<path d="M942.269 381.878L939.019 387.558C929.149 380.068 916.099 380.478 908.019 390.118C907.039 391.285 906.002 393.098 904.909 395.558C901.379 403.518 899.699 411.808 888.959 410.908C879.459 410.108 874.239 399.248 880.589 391.678C884.699 386.788 891.869 383.928 897.879 382.268C912.659 378.201 927.456 378.071 942.269 381.878Z" fill="#C4AB69"/>
<path d="M503.599 393.95C501.519 433.75 501.226 473.623 502.719 513.57L466.419 513.59C466.186 513.59 465.962 513.497 465.797 513.332C465.632 513.167 465.539 512.943 465.539 512.71V511.39C465.54 511.136 465.633 510.89 465.802 510.699C465.971 510.508 466.205 510.384 466.459 510.35C474.432 509.316 479.649 507.383 482.109 504.55C485.422 500.73 487.306 496.206 487.759 490.98C488.446 483.14 488.786 476.246 488.779 470.3C488.759 444.9 488.709 430.816 488.629 428.05C488.249 413.6 488.089 397.99 474.229 389.98L474.769 379.18C486.802 379.76 496.412 384.683 503.599 393.95Z" fill="#C4AB69"/>
<path d="M528.202 391.226C527.302 390.42 526.072 389.993 524.512 389.946C540.445 379.28 557.442 376.42 575.502 381.366C579.142 382.366 583.008 384.306 587.102 387.186C595.022 392.756 599.612 400.266 601.212 409.826C601.525 411.706 601.675 416.523 601.662 424.276C601.622 445.576 601.658 463.246 601.772 477.286C601.812 482.433 601.952 486.926 602.192 490.766C602.652 498.266 605.622 504.276 613.032 507.356C616.685 508.876 620.098 509.89 623.272 510.396C623.498 510.432 623.704 510.548 623.852 510.722C624.001 510.896 624.082 511.118 624.082 511.346V512.686C624.082 512.925 623.987 513.154 623.818 513.323C623.649 513.492 623.42 513.586 623.182 513.586L556.492 513.456C556.302 513.457 556.114 513.419 555.939 513.345C555.764 513.271 555.606 513.163 555.473 513.027C555.341 512.89 555.237 512.729 555.168 512.552C555.099 512.375 555.066 512.186 555.072 511.996V511.936C555.08 511.528 555.238 511.137 555.517 510.838C555.796 510.539 556.175 510.353 556.582 510.316C568.635 509.243 575.382 503.81 576.822 494.016C577.708 488.016 578.178 482.033 578.232 476.066C578.432 453.313 578.345 434.71 577.972 420.256C577.622 406.696 573.092 391.786 558.552 387.466C548.612 384.506 537.222 385.866 528.202 391.226Z" fill="#C4AB69"/>
<path d="M699.69 510.349C699.832 510.371 699.961 510.442 700.054 510.55C700.148 510.658 700.2 510.796 700.2 510.939V512.969C700.2 513.05 700.185 513.129 700.154 513.203C700.123 513.277 700.078 513.344 700.022 513.401C699.965 513.457 699.898 513.502 699.824 513.533C699.75 513.564 699.671 513.579 699.59 513.579H632.8C632.384 513.579 631.985 513.415 631.69 513.123C631.396 512.83 631.23 512.433 631.23 512.019V511.659C631.232 511.341 631.351 511.035 631.565 510.801C631.78 510.566 632.074 510.419 632.39 510.389C643.537 509.309 650.104 504.943 652.09 497.289C654.42 488.329 654.45 479.219 654.45 470.809C654.457 452.123 654.454 437.033 654.44 425.539C654.434 422.499 654.36 419.336 654.22 416.049C653.92 408.729 653.89 402.729 650.18 396.509C646.2 389.829 640.96 388.899 633.99 387.749C633.624 387.687 633.295 387.484 633.067 387.18C632.84 386.877 632.73 386.495 632.76 386.109C632.827 385.209 633.29 384.706 634.15 384.599C645.424 383.199 659.81 381.399 677.31 379.199C677.374 379.191 677.44 379.196 677.502 379.214C677.563 379.232 677.62 379.263 677.669 379.305C677.717 379.347 677.756 379.398 677.782 379.456C677.808 379.514 677.821 379.576 677.82 379.639C677.847 425.819 677.854 453.619 677.84 463.039C677.82 469.999 677.93 478.166 678.17 487.539C678.39 496.329 680.53 503.599 689.25 507.379C692.597 508.826 696.077 509.816 699.69 510.349Z" fill="#C4AB69"/>
<path d="M827.07 482.708L827.06 513.568L797.79 513.578C797.541 513.578 797.302 513.479 797.126 513.303C796.949 513.127 796.85 512.888 796.85 512.638V511.288C796.85 511.062 796.934 510.845 797.086 510.679C797.239 510.514 797.447 510.414 797.67 510.398C804.65 509.868 812.22 507.448 809.45 498.578C808.844 496.645 807.54 494.565 805.54 492.338C791.967 477.192 778.31 462.042 764.57 446.888L765.52 439.498C771.367 433.118 777.224 426.715 783.09 420.288C787.257 415.715 791.23 410.772 795.01 405.458C796.25 403.718 797.144 401.542 797.69 398.928C800.14 387.168 789.77 385.348 781.04 384.818C780.745 384.801 780.468 384.671 780.265 384.455C780.062 384.239 779.95 383.954 779.95 383.658V382.478C779.95 382.192 780.064 381.917 780.267 381.715C780.469 381.512 780.744 381.398 781.03 381.398H839.09C839.334 381.398 839.568 381.495 839.741 381.668C839.913 381.84 840.01 382.074 840.01 382.318V383.738C840.011 383.946 839.933 384.146 839.792 384.298C839.651 384.45 839.457 384.543 839.25 384.558C830.6 385.178 823.63 386.298 816.73 391.938C812.25 395.592 808.734 398.825 806.18 401.638C797.58 411.125 788.964 420.475 780.33 429.688C780.259 429.762 780.219 429.86 780.217 429.964C780.215 430.068 780.252 430.169 780.32 430.248L827.07 482.708Z" fill="#C4AB69"/>
<path d="M917.149 516.033C917.482 514.259 917.452 512.483 917.059 510.703C928.099 512.003 938.179 505.903 943.429 496.433C947.979 488.233 949.639 476.093 949.649 465.793C949.655 456.539 949.685 447.356 949.739 438.243C949.737 438.142 949.708 438.044 949.655 437.959C949.602 437.874 949.527 437.805 949.437 437.759C949.347 437.714 949.247 437.694 949.147 437.702C949.047 437.709 948.95 437.744 948.869 437.803L945.639 440.143C945.165 438.783 944.312 437.956 943.079 437.663C946.459 434.063 948.425 429.433 948.979 423.773C950.169 411.583 949.019 396.133 939.019 387.563L942.269 381.883C951.569 383.669 959.235 387.149 965.269 392.323C969.529 395.963 972.249 402.363 972.539 408.563C972.669 411.263 973.119 414.833 973.109 418.213C973.015 443.646 973.029 466.259 973.149 486.053C973.199 494.383 974.649 505.763 985.039 507.113C992.679 508.103 996.039 505.303 1000.45 499.683C1000.69 499.383 1001.09 499.209 1001.64 499.163C1001.88 499.142 1002.12 499.181 1002.35 499.274C1002.57 499.368 1002.76 499.514 1002.91 499.699C1003.07 499.884 1003.17 500.102 1003.21 500.334C1003.25 500.565 1003.23 500.802 1003.15 501.023C998.069 515.453 981.759 518.723 968.669 515.183C959.639 512.743 954.379 506.833 950.059 499.103C950.018 499.026 949.959 498.959 949.889 498.909C949.818 498.858 949.736 498.824 949.651 498.809C949.565 498.795 949.476 498.8 949.393 498.825C949.309 498.85 949.233 498.894 949.169 498.953C939.729 507.533 930.709 514.703 917.149 516.033Z" fill="#C4AB69"/>
<path d="M528.201 391.225C522.395 395.632 518.411 401.132 516.251 407.725C513.698 415.552 512.371 424.069 512.271 433.275C512.085 450.215 512.108 467.139 512.341 484.045C512.391 487.495 512.731 490.565 513.131 493.625C514.601 504.815 523.521 508.385 533.251 510.455C533.47 510.502 533.676 510.594 533.856 510.727C534.036 510.86 534.187 511.031 534.298 511.228C534.409 511.424 534.478 511.643 534.501 511.87C534.524 512.097 534.5 512.327 534.431 512.545C534.285 513.005 533.928 513.242 533.361 513.255C523.215 513.515 513.001 513.619 502.721 513.565C501.228 473.619 501.521 433.745 503.601 393.945L509.231 401.595C509.333 401.733 509.482 401.828 509.65 401.863C509.818 401.898 509.993 401.871 510.141 401.785C510.621 401.512 511.121 401.115 511.641 400.595C515.635 396.635 519.925 393.085 524.511 389.945C526.071 389.992 527.301 390.419 528.201 391.225Z" fill="#C4AB69"/>
<path d="M290.078 400.611C289.465 438.091 289.485 475.091 290.138 511.611C286.751 511.698 283.525 511.431 280.458 510.811C280.171 510.755 279.898 510.64 279.655 510.473C279.413 510.307 279.205 510.092 279.044 509.841C278.884 509.59 278.773 509.308 278.719 509.011C278.664 508.714 278.667 508.409 278.728 508.111C278.808 507.691 279.295 507.285 280.188 506.891C281.678 506.241 283.498 506.211 284.808 505.301C286.875 503.855 287.275 501.445 286.008 498.071C275.755 470.751 265.415 443.411 254.988 416.051C254.388 413.191 254.231 409.918 254.518 406.231C271.725 398.031 289.915 393.668 309.088 393.141C311.895 393.061 314.638 393.131 317.318 393.351C317.355 393.35 317.391 393.364 317.418 393.389C317.446 393.414 317.462 393.449 317.463 393.486C317.464 393.524 317.451 393.56 317.425 393.587C317.4 393.614 317.365 393.63 317.328 393.631C307.768 395.251 298.685 397.578 290.078 400.611Z" fill="#C4AB69"/>
<path d="M307.348 443.409C309.668 466.919 309.738 488.069 308.758 512.019L290.138 511.609C289.485 475.089 289.465 438.089 290.078 400.609L307.348 443.409Z" fill="#C4AB69"/>
<path d="M254.521 406.227C254.234 409.913 254.391 413.187 254.991 416.047L220.621 438.047L217.621 427.497C226.954 421.15 236.601 415.317 246.561 409.997C249.101 408.637 251.754 407.38 254.521 406.227Z" fill="#C4AB69"/>
<path d="M162.33 419.383L163.27 436.583C142.02 445.783 118.31 451.673 95.0195 451.773L97.4095 439.753C120.89 436.786 142.53 429.996 162.33 419.383Z" fill="#C4AB69"/>
<path d="M97.4098 439.75L95.0198 451.77C61.9698 452.34 29.5898 442.42 1.04983 426.33C1.03092 426.32 1.01594 426.305 1.0075 426.285C0.999054 426.266 0.997696 426.244 1.00366 426.224C1.00962 426.204 1.02252 426.186 1.0401 426.174C1.05769 426.163 1.07883 426.158 1.09983 426.16C1.2065 426.167 1.3365 426.163 1.48983 426.15C1.6165 426.143 1.73983 426.16 1.85983 426.2C12.7598 429.84 23.2598 432.857 33.3598 435.25C54.5465 440.257 75.8965 441.757 97.4098 439.75Z" fill="#C4AB69"/>
<path d="M217.621 427.5L220.621 438.05C204.528 449.557 187.298 458.877 168.931 466.01C168.782 466.07 168.647 466.158 168.534 466.27C168.421 466.382 168.331 466.514 168.271 466.66L164.691 475.59L163.121 459.27C175.181 453.997 186.738 447.73 197.791 440.47C204.384 436.137 210.994 431.813 217.621 427.5Z" fill="#C4AB69"/>
<path d="M945.64 440.136C936.56 447.106 926.5 451.646 917.99 456.926C907.34 463.526 900.57 473.526 900.11 486.276C899.72 497.366 905.4 508.666 917.06 510.696C917.454 512.476 917.484 514.253 917.15 516.026C907.384 517.286 898.434 516.14 890.3 512.586C876.09 506.386 870.5 491.906 874.3 477.186C877.55 464.576 887.69 457.706 899.82 453.756C903.86 452.446 913.29 449.826 923.39 447.246C930.704 445.38 937.267 442.183 943.08 437.656C944.314 437.95 945.167 438.776 945.64 440.136Z" fill="#C4AB69"/>
<path d="M328.582 489.896L328.942 511.426C328.944 511.558 328.896 511.686 328.806 511.783C328.717 511.88 328.593 511.938 328.462 511.946L325.052 512.166L308.762 512.016C309.742 488.066 309.672 466.916 307.352 443.406C314.122 459.116 319.802 475.246 328.582 489.896Z" fill="#C4AB69"/>
<path d="M163.121 459.266L164.691 475.586C162.238 481.372 160.518 487.396 159.531 493.656C158.685 499.022 160.255 502.729 164.241 504.776C169.401 507.426 175.621 505.616 180.811 506.976C181.103 507.051 181.367 507.209 181.572 507.43C181.776 507.652 181.911 507.928 181.961 508.226C182.368 510.599 181.261 511.886 178.641 512.086C176.255 512.272 173.155 512.272 169.341 512.086C160.375 511.659 151.378 511.369 142.351 511.216L139.811 475.396C140.325 474.536 140.598 473.592 140.631 472.566C140.633 472.497 140.62 472.429 140.594 472.366C140.567 472.303 140.528 472.247 140.478 472.201C140.427 472.154 140.368 472.119 140.303 472.097C140.238 472.076 140.169 472.068 140.101 472.076C131.161 473.042 122.191 473.016 113.191 471.996C113.14 471.986 113.093 471.959 113.059 471.918C113.024 471.878 113.005 471.827 113.004 471.775C113.003 471.722 113.02 471.67 113.052 471.629C113.084 471.587 113.13 471.558 113.181 471.546C115.881 471.152 119.011 470.702 122.571 470.196C136.531 468.229 150.048 464.586 163.121 459.266Z" fill="#C4AB69"/>
<path d="M142.349 511.218L101.359 512.248C100.58 512.269 99.8153 512.014 99.1916 511.527C98.5679 511.039 98.1224 510.348 97.9288 509.568L97.9088 509.468C97.8252 509.133 97.8175 508.783 97.8864 508.445C97.9553 508.106 98.099 507.787 98.3069 507.511C98.5149 507.235 98.7819 507.009 99.0885 506.849C99.395 506.69 99.7334 506.601 100.079 506.588C108.439 506.295 114.115 505.618 117.109 504.558C122.929 502.492 127.595 498.738 131.109 493.298C134.249 488.432 137.149 482.465 139.809 475.398L142.349 511.218Z" fill="#C4AB69"/>
<path d="M827.059 513.571L827.069 482.711C835.149 490.621 842.599 499.181 852.499 505.371C857.172 508.298 862.719 509.984 869.139 510.431C869.421 510.449 869.686 510.575 869.879 510.783C870.072 510.991 870.179 511.266 870.179 511.551V512.151C870.179 512.512 870.036 512.858 869.783 513.113C869.53 513.368 869.187 513.511 868.829 513.511L827.059 513.571Z" fill="#C4AB69"/>
<path d="M325.051 512.168L328.461 511.948C328.593 511.941 328.716 511.882 328.806 511.785C328.895 511.688 328.944 511.56 328.941 511.428L328.581 489.898C329.541 491.225 330.464 492.518 331.351 493.778C336.864 501.625 344.621 505.775 354.621 506.228C359.994 506.468 362.707 506.592 362.761 506.598C363.227 506.651 363.664 506.862 364.001 507.198C364.821 508.038 364.941 509.105 364.361 510.398C364.226 510.693 363.982 510.923 363.681 511.038C361.834 511.725 359.824 512.088 357.651 512.128C346.791 512.328 335.924 512.342 325.051 512.168Z" fill="#C4AB69"/>
</svg>
